<svg xmlns="http://www.w3.org/2000/svg" viewBox="0 0 1651.38 1135.6"><defs><style>.cls-1{fill-rule:evenodd;}</style></defs><title>Asset 21</title><g id="Layer_2" data-name="Layer 2"><g id="Layer_1-2" data-name="Layer 1"><path d="M1149.83,292a576,576,0,0,1,62.93-130.69c30.58-47.06,69.52-90.43,118.62-118.58,47.85-27.43,110.28-41.93,163.47-22C1540.78,38,1573,80,1587.9,125.56c13.73,42.12,15.51,92.51-6.4,132.3a202.43,202.43,0,0,1-58.68,65.45c-7.26,5.13-25.64,12.1-22.83,23.73,1.34,5.5,6.75,9.86,10.7,13.5,9.58,8.8,19.63,17.08,28.83,26.3,24,24,43.18,52.51,58.37,82.8,27.56,55,44.73,119.46,40.65,181.28C1634.65,710,1590,764.83,1531,776.15c-66.08,12.68-122.38-47.51-157.93-95.13-10.57-14.16-20.53-28.76-30.39-43.42-3.44-5.11-10.5-2.86-11.09,3-10.77,106.65-53.79,211.64-118,297.21C1182,979.91,1144,1018,1099.65,1046.6c-39.63,25.58-84,41.55-129.59,52.82-102.74,25.42-211.89,29.7-316.87,18.27-52.35-5.71-104.53-15.91-154.44-32.86-51.85-17.61-99.73-44.63-144.42-76.07A737.06,737.06,0,0,1,220.56,887.89c-34.23-39.68-64.94-83.92-85.09-132.52a312.21,312.21,0,0,1-11.29-32.09c-2-6.72-11.13-4.94-11.69,1.58-1.58,18.06-12.37,33.18-30.72,36.73-16.29,3.16-33.66-3.4-44.41-15.89-8.39-9.75-12.61-24.19-11.79-37,1.15-17.93,14.66-25.59,31.52-25.85L55.5,671.21c-14.41,3.86-29.15,2-37.29-11.73-7.28-12.32-7.6-28.44-4.5-42.07C17,603.09,28,593.75,42.31,591.25c17.8-3.11,35.23,4.7,47.92,16.82,3.11,3,8.91,1.87,10-2.63A720.74,720.74,0,0,1,233.57,325.69c32.54-41.66,70.07-79.87,112.56-111.43,43.78-32.53,91.83-56.45,143.78-72.85C603.57,105.53,725.4,92.46,843.33,113c96.39,16.78,189.83,55.63,266.12,117.49a495,495,0,0,1,48.47,44.91c10.91,11.57,29.38,27.84,29.11,45.36-.14,9.36-8.69,13.2-17.09,12.47a24.76,24.76,0,0,1-22-18.39c-1.94-7.62-.45-15.45,1.9-22.8s-9.15-10.45-11.48-3.17c-4.75,14.88-4.84,31.9,6.11,44.14a37.22,37.22,0,0,0,32.92,11.75c11.29-1.77,20.39-9.86,21.43-21.57,1.68-18.78-13.61-35.44-25.17-48.29-66.59-74-155.53-126.09-250.29-155.06-115.4-35.28-239.12-36.09-356.66-11-60.57,12.9-121.08,31.05-175.21,61.68C342.77,198,299.05,234.15,261.05,275.11,185.38,356.65,129.67,457.73,98.56,564.39q-5.48,18.79-9.86,37.89l10-2.63c-15.91-15.18-37.41-24-59.5-19.89C21,583.13,6.36,596.11,2.23,614.24c-4,17.45-3.23,38.11,7,53.39,11.34,16.89,30.72,20.06,49.4,15.06,6.44-1.73,5.19-11.8-1.58-11.7-16.18.26-32.45,5.81-39.62,21.45-6,13.09-4.52,29,.3,42.2,11,30.05,45.58,48.21,76.15,35.65,19-7.81,28.75-25.62,30.47-45.43l-11.69,1.58c14.3,49.07,40.69,94.17,71.22,134.82,36.05,48,78.66,91,125.48,128.5,45.92,36.8,96.3,70,150.64,93,48.25,20.44,99.54,33.2,151.23,41.28,108.48,17,221.53,15.46,329.31-5.89,46.36-9.19,92.93-22.28,135.13-44,47.32-24.29,88.62-59.56,123.36-99.58,72-83,121.07-188.7,139.42-296.92q3.13-18.47,5-37.1l-11.1,3c38.44,57.15,84,123.59,154.39,142.8C1542.9,801.73,1602,764.9,1630,717.62c32.46-54.75,22.54-125.39,5.64-183.7-19.35-66.77-54.56-126.8-106.7-173-5.83-5.16-12.06-11.3-17.11-16.3-1.29-1.27.51.49-.71,1.07,1.81-.87,2.81-2.33,4.92-3.71,21.44-14,39.92-29.86,56-50,16.5-20.64,28.88-42.08,34.19-68.17,4.8-23.61,4.54-48,.5-71.67-8.35-48.95-34.13-96.37-75.21-125.26-47.46-33.38-109.07-32.65-162.29-14.36C1261,49.72,1190.37,156.35,1149.68,258q-6.11,15.25-11.33,30.85C1135.91,296.14,1147.41,299.27,1149.83,292Z"/><path d="M356.72,287.57c57.47,6.4,111,37.73,146.64,83,37.52,47.64,51.51,110.36,40.56,169.75-6.2,33.67-19.94,66-41,93.13-1.93,2.49-2.57,6,0,8.42,35.45,33.5,57.21,78.7,65.14,126.55,7.84,47.38,2,97.87-17.67,141.76a213.35,213.35,0,0,1-46.07,66.23c-5.52,5.34,2.91,13.75,8.42,8.42,36.37-35.19,59.09-82.76,67-132.49,8.06-50.47,1.9-103-19.26-149.68a220.85,220.85,0,0,0-49.16-69.21v8.42c39.78-51.23,55.71-118.43,44.51-182.23-10.87-62-49.44-116.18-102.28-149.77a227.89,227.89,0,0,0-96.87-34.19c-7.6-.84-7.54,11.07,0,11.91Z"/><path class="cls-1" d="M278.55,555.91C264.19,572,262.44,607,296.35,601.68c17.63-2.79,27.43-27.09,16.67-41.33C300.3,543.51,287.16,546.3,278.55,555.91Z"/><path d="M371.74,675c-27.58-6.19-56.51,6.62-72.64,29.4-16.58,23.45-14.29,54.95,2.26,77.78,16.88,23.3,45.13,34.72,73.26,27.09,27.06-7.35,49.72-30.27,53.7-58.44,4.7-33.27-16.93-62.62-47.55-73.74-6.06-2.2-8.67,7.46-2.66,9.64C401.1,695,418.84,716,419,741.05c.18,24.65-16.44,46.16-38.67,55.64a57.5,57.5,0,0,1-65.5-13.77c-16.13-17.24-22.82-43.77-11.93-65.5,11.85-23.66,40-38.71,66.16-32.82,6.27,1.4,8.95-8.23,2.66-9.65Z"/><path d="M663.54,684.18,777.17,577.33c4.13-3.89,8.26-8.88,13.07-11.94,5-3.2,8.17,1.28,11,5.21a83,83,0,0,1,13.05,27.47c5.25,19.61,3.43,40.94-6,59A84.65,84.65,0,0,1,761,697.84l7.32,4.15c-4.67-11.61.18-23.23,8.8-31.58,8.95-8.67,20.79-12.51,33.13-11.76,24.34,1.47,46.2,20.92,54.46,43.23,8.94,24.16,1.19,50.63-15.35,69.61a94.65,94.65,0,0,1-68.57,32.36c-33.07,1-65.38-12.82-90.59-33.63-5.87-4.84-14.34,3.53-8.42,8.42,25.86,21.34,57.89,36,91.77,37.12,31.16,1,61.72-11.09,82.81-34.27,19.61-21.54,30.08-52.35,20.52-80.8-9.24-27.51-34-50.2-63.26-53.64a55.09,55.09,0,0,0-44.41,14.46c-11.67,11-18.64,28.06-12.37,43.65,1.14,2.85,4,5.29,7.32,4.16a94.87,94.87,0,0,0,51.73-138.17c-5.13-8.66-12.89-20.77-24.6-18.84-5.93,1-10.33,5.16-14.55,9.12q-8,7.47-15.92,15l-33.3,31.31-72.37,68c-5.6,5.26,2.83,13.67,8.42,8.42Z"/></g></g></svg>