<svg xmlns="http://www.w3.org/2000/svg" viewBox="0 0 1296.03 1227.09"><defs><style>.cls-1{fill:#231f20;}</style></defs><title>Asset 30</title><g id="Layer_2" data-name="Layer 2"><g id="Layer_1-2" data-name="Layer 1"><path class="cls-1" d="M83.89,180c18.9,5.62,31.79,32.28,18.43,49.17C90.1,244.6,66.81,234.43,51,232.1a121,121,0,0,0-47.42,2.08l5.65,7.34c6.64-12.14,12.13-24.93,20.26-36.21,10.64-14.76,25.56-24.91,42.09-32.07a4.79,4.79,0,0,0,2.48-4.31c-3.61-38.43,5-77.69,30.18-107.73,21.85-26.07,53-43,86.32-48.94,32.13-5.76,66.61-.83,94.66,16.26,15.42,9.4,27.53,22.13,37.67,37,16.16,23.61,29.64,49,42.22,74.62,12,24.57,23.16,49.58,35.33,74.09,9.85,19.82,20.32,39.75,34.42,56.93a110,110,0,0,0,9.28,10c4.66,4.43,11.74-2.63,7.07-7.07-15.58-14.83-26.33-34.32-36.17-53.21-12.71-24.4-23.87-49.58-35.76-74.38C366.51,119.76,353,93.26,336.86,68.38c-11.08-17.07-23.21-32.43-40-44.2C268.59,4.34,232.57-2.95,198.54,1.06c-35.15,4.15-68.93,19.54-93.88,44.87C76.94,74.09,63.1,112.45,63.22,151.7c0,5.76.34,11.5.88,17.23l2.48-4.32c-17.46,7.56-32.78,18.49-44.27,33.74C13.44,210.11,7.66,223.63.63,236.48a5.06,5.06,0,0,0,5.65,7.34,112.13,112.13,0,0,1,46.92-1.29c10.78,1.9,21.91,5.47,33,4.88,24.68-1.3,36.23-26.73,29.07-48.57-4.48-13.63-14.86-24.39-28.7-28.51-6.18-1.83-8.82,7.81-2.65,9.65Z"/><path class="cls-1" d="M670,905.43c26.44-4.39,51.12-15.69,71.06-33.68,14.53-13.12,26.08-29.34,35-46.68,2.82-5.46,5.32-11.06,7.91-16.63.73-1.55,1.48-3.07,2.3-4.57.56-1-.12.06-.3.16a5.65,5.65,0,0,1-2,.81c-1,.15-2.77-1-3.25-.83s-.49-.54-.18-.13A12,12,0,0,0,782,805c7,5.32,15.19,9.2,23.12,12.93,29.65,14,60.75,25,91.79,35.42q62.21,20.83,126,36.51c42.39,10.39,85.34,19.13,128.75,23.95,33,3.66,68.45,6.26,101-2.16,11.28-2.93,22.64-7.6,31.19-15.74,7.1-6.77,13-17.3,12.12-27.39-1-12.18-10.31-22.35-18.92-30.17-13.19-12-28.53-21.63-43.92-30.49-38.95-22.43-80.55-40.34-122.21-57-32.37-13-65.13-25.31-98.38-35.88-3.47-1.1-6.95-2.2-10.48-3.14-6.22-1.66-8.88,8-2.66,9.64,26.4,7.05,52.24,17.25,77.75,26.9,41.5,15.72,82.66,32.72,122.28,52.75,17.82,9,35.45,18.64,51.95,29.92,11.2,7.65,23.59,16.81,30.67,28,2.65,4.17,3.89,7.61,4,11.52.09,3-1.72,7.93-3.62,11.22-4.51,7.82-13,13.5-21.78,16.88-28.42,11-61.56,9.27-91.33,6.89-41.89-3.35-83.41-11.26-124.32-20.67-42.51-9.77-84.59-21.5-126.12-34.8-32.92-10.55-65.79-21.85-97.5-35.67-9.72-4.24-19.51-8.64-28.59-14.14-1.5-.91-2.95-1.87-4.39-2.87-.31-.21-.61-.44-.91-.66-.69-.51.94.63.08.05-1.39-.92-2.29-1.83-4.12-1.81-4.21,0-6.08,4.34-7.61,7.57-6.12,12.92-12.1,25.71-20.25,37.53-12.61,18.3-29.33,33.55-49.25,43.53a136.54,136.54,0,0,1-39,12.24c-6.33,1.05-3.64,10.69,2.66,9.64Z"/><path class="cls-1" d="M379.17,319.29c-31.34.51-62.64,7.27-90,22.95-29.51,16.9-52.45,43.16-68.35,73-19.66,36.86-20.3,82.06-11.38,122a231.06,231.06,0,0,0,78.76,127.94C340.54,707.86,408,724.31,474.47,725.6c75.37,1.46,149.78-15.32,222.58-33.07,34.09-8.32,68.1-17.07,102.5-24,29.9-6,60.37-10.93,91-10.53,12.76.17,25.78.69,37.22,7a48,48,0,0,1,21.09,22.57c2.92,6.74,4.61,15.77.58,22.33-4.45,7.26-14.24,7.56-21.87,6.09-18.22-3.48-30.93-16.43-41-31.29-12.11-17.91-24.21-35.68-37.43-52.81-26.43-34.23-55.19-66.54-83.3-99.38-10.6-12.39-20.87-25-32.15-36.82-10.36-10.81-21.26-21.1-32.51-31a689.65,689.65,0,0,0-80.86-60.84c-58.66-37.88-124.69-69.89-194.2-80.87a280.6,280.6,0,0,0-46.93-3.65c-6.43.06-6.45,10.06,0,10,69-.72,136.72,26.31,196.2,59.24,57.41,31.8,112.25,71.71,156.82,120.13C744.5,522,755.91,536.25,767.77,550c14.17,16.46,28.43,32.84,42.4,49.46s27.45,33.26,40.3,50.58c6.59,8.89,13,17.92,19.18,27.11,5.36,8,10.37,16.13,16.47,23.56,10.8,13.17,24.75,23,41.87,25.36,9.53,1.34,20.06.14,27-7.19,14-14.73,4.18-38.68-7.62-51.29-18.82-20.1-46.74-20.48-72.38-19.37-31.25,1.36-62.23,7.09-92.73,13.71C710.51,677.51,640,698.56,567.16,709.17,495.79,719.58,419,720.43,351.49,691.72,300.4,670,258.4,630.93,234.72,580.57c-18.57-39.48-26.45-86.4-16.59-129.32,5.77-25.15,19.18-48,36.08-67.35a156.54,156.54,0,0,1,79.33-48.83,196.58,196.58,0,0,1,45.63-5.78C385.6,329.18,385.62,319.18,379.17,319.29Z"/><path class="cls-1" d="M226.38,145.21c1.72-7.45-1.21-15-13.12-13.64-8.49,1-13.9,12.11-9.45,19.42C212.67,165.56,224,155.53,226.38,145.21Z"/><path class="cls-1" d="M257,111.59C239.51,92,208.3,85.83,185.25,99.46c-17.4,10.28-25,30.77-22.15,50.25,3.1,21.44,19.16,40.53,40.1,46.68,20.55,6,42-3.4,54.62-19.93,15-19.62,15.36-45.87-.79-64.87-4.17-4.92-11.22,2.19-7.07,7.07,11.57,13.61,12,32.13,3,47.22C244.56,180,228.61,190.06,211.83,188c-33.94-4.1-53.84-52-26.93-76,18.67-16.69,49.35-10.92,65.06,6.66C254.25,123.47,261.31,116.37,257,111.59Z"/><path class="cls-1" d="M115.48,265.29a133.41,133.41,0,0,1,11.06,64c-1.58,20.73-8,41-16.09,60-17,39.81-41.55,75.83-58.76,115.53-18.6,42.92-29.41,91.13-25.92,138,2.89,38.66,16,75.41,36.51,108.19,22.31,35.68,51,68,85.85,91.8,31.85,21.81,68.23,35.55,105.28,45.63,9.68,2.63,19.42,5,29.19,7.32,11.44,2.67,22.86,5,33.63,9.87a122.28,122.28,0,0,1,26.3,16.5c3.2,2.57,5.41,6.24,8,9.42q5,6.18,10.45,12a299.84,299.84,0,0,0,100.33,71c14.22,6.09,29.24,11.29,44.77,12.49,16.49,1.28,33.75-5.18,47.93-13.11A89,89,0,0,0,588.57,979c7.29-13.28,11.49-27.95,15.15-42.57,1.75-7,3.41-14,5.32-21,1.7-6.21-7.95-8.87-9.65-2.66-7.72,28.25-12,59.39-34.19,80.64A91.81,91.81,0,0,1,516.27,1017c-12.63,1.7-26.13-2.33-37.92-6.42-36.76-12.77-71-35.79-99-62.54a251.87,251.87,0,0,1-21.77-23.49c-2.4-3-4.44-6.31-7.27-8.85a110.13,110.13,0,0,0-9.63-7.47,120.38,120.38,0,0,0-32.2-16.2c-10-3.32-20.57-5.17-30.84-7.65-36.92-8.91-73.66-20.07-106.78-39.05-35.94-20.6-65.58-49.9-89.43-83.58C59.58,730.9,43.42,696.57,37.59,659,30.44,613,39.18,565.19,55.45,522c28.22-75.05,96.07-145.08,78.71-231a150.64,150.64,0,0,0-10-30.74c-2.58-5.88-11.2-.8-8.63,5.05Z"/><path class="cls-1" d="M203.5,906.75c25,25,37.51,59.64,62.83,84.41,23.34,22.84,59.61,35.88,91.06,22.75C375,1006.56,388,992.07,395.9,975c2.68-5.8-5.93-10.89-8.63-5.05-6.6,14.26-16.6,26.58-30.92,33.57-13.14,6.41-28.42,7.09-42.46,3.59-33.41-8.3-52.93-35.38-70.38-62.88-9.89-15.6-19.82-31.37-32.94-44.51-4.55-4.57-11.62,2.5-7.07,7.07Z"/><path class="cls-1" d="M541.46,1045.45c12.48,21.85,18.64,50.41,16.41,75.45l3.67-4.82c-27.15,10.09-56.85,11.43-84.35,20.46-5.17,1.69-10.69,3.59-15.24,6.64a13,13,0,0,0-3.84,18c3.87,5.78,13,8.79,19.4,10.38a82.84,82.84,0,0,0,23.34,2c15.73-.68,30.88-5.4,46.51-6.43l-5-5c-.15,9.41-2,18.76-2.67,28.14-.62,9.1-.93,19.74,3.84,27.89,4.29,7.32,14,11.41,21.81,7.21,8.28-4.42,12.7-14.54,16.1-22.77,4.24-10.29,7.15-21,9.92-31.79L583,1173c6.82,7.07,17,11.11,26,14.39,10.55,3.83,22.13,7,33.43,6.85,8.89-.08,17.22-2.91,19.33-12.43,2.49-11.23-4.19-20.57-12.5-27.35-9.33-7.59-21.57-12.51-29.56-21.61-4.25-4.85-11.3,2.25-7.07,7.07,5.87,6.68,14.21,11.06,21.53,15.91,6.65,4.4,16.52,10.36,18,19,1.34,7.7-2.91,9.38-9.75,9.44-9.33.08-18.74-2.43-27.54-5.36-8.45-2.83-18.53-6.38-24.87-13a5,5,0,0,0-8.36,2.21c-2.66,10.37-5.43,20.78-9.48,30.72-2.18,5.37-7.63,20.31-15.64,17.88-8.36-2.55-7.38-16.56-7.09-23.19.46-10.51,2.69-20.91,2.86-31.43,0-2.57-2.33-5.18-5-5-24.45,1.61-51,13.14-74.84,2.22-1.87-.86-6.35-2.53-6.63-4.93-.3-2.6,2.91-3.76,4.79-4.68a87.23,87.23,0,0,1,14.72-5.28c12.84-3.69,26-6.2,39.07-8.88,13.31-2.72,27-5.14,39.73-9.89a5.27,5.27,0,0,0,3.67-4.82c1.25-14-.56-28.35-3.64-42.05-3-13.29-7.36-26.58-14.13-38.45-3.19-5.59-11.84-.55-8.64,5Z"/><path class="cls-1" d="M290.29,1048.23c4,10.08,6.16,21,8.42,31.53,2.34,11,4.6,22.08,6,33.24l2.47-4.31c-13.75,6.32-30.36,7.59-45.17,9.67-16.39,2.31-33.24,3.92-49.16,8.64-9.06,2.69-23.42,8.65-20,20.8,3.44,12.39,22.84,12.41,32.83,12.5,16.8.14,33.66-2,50.24-4.58l-5.65-7.34c-5.86,9.32-13.21,17.63-19.14,26.92-5,7.88-11,18.44-8,28.12,3.2,10.21,14.62,12.58,23.91,10.19,11-2.82,20.48-10.95,28.44-18.68,10-9.72,18.73-20.69,27.3-31.68l-8.35-2.21c2.56,9.22,10.07,17.18,17.08,23.31,8.38,7.33,18.6,14,29.81,15.75,9.88,1.51,21.09-2,25.77-11.54,4.53-9.2.43-19.88-4-28.24-5.21-9.76-12.65-18-18.14-27.56-3.21-5.57-11.86-.54-8.64,5,5.11,8.88,12,16.64,17.05,25.57,4.14,7.29,9.94,19,.84,24.89-9.41,6.11-22-1-29.9-6.5-7.73-5.43-17.56-13.89-20.2-23.38-.92-3.29-6-5.29-8.36-2.21-8.16,10.46-16.44,20.88-25.85,30.25-7.5,7.47-18.71,18.7-30.31,18.11-12.45-.64-5.36-14.88-1.71-21.07,6.24-10.57,14.56-19.68,21.07-30,2.56-4.06-1.64-8-5.64-7.34a343.77,343.77,0,0,1-38.94,4.07,116.87,116.87,0,0,1-20.49-.55,32.66,32.66,0,0,1-7.75-1.84,7.41,7.41,0,0,1-3.52-2.42,3.85,3.85,0,0,1,3-4.57c4.44-2.83,9.81-4.19,14.87-5.44,14.9-3.67,30.27-5.34,45.44-7.49,15.5-2.19,32-3.91,46.39-10.52a4.81,4.81,0,0,0,2.48-4.32c-1.42-11.61-3.63-23.14-6.05-34.58-2.32-11-4.56-22.36-8.69-32.84-2.34-5.92-12-3.34-9.65,2.65Z"/></g></g></svg>