<svg xmlns="http://www.w3.org/2000/svg" viewBox="0 0 1552.3 1164.35"><defs><style>.cls-1{fill:#231f20;}</style></defs><title>Asset 31</title><g id="Layer_2" data-name="Layer 2"><g id="Layer_2-2" data-name="Layer 2"><path class="cls-1" d="M985,191.17c-17.93-21.72-29.34-49.63-32.87-77.5-3.4-26.82.67-56.5,19.32-77.29,19.31-21.53,52-32,80-23.69,26.73,8,46.19,31.31,56.61,56.33,12.54,30.1,14.16,66.22-.63,95.83-2.87,5.74,5.75,10.81,8.63,5.05,14.57-29.17,15.1-63.82,5-94.5-9.43-28.62-28.72-56.15-57-68.62-30-13.22-65.63-6.35-90.76,14-24,19.48-33.3,50.7-32.16,80.71a164,164,0,0,0,36.78,96.7c4.11,5,11.14-2.15,7.08-7.07Z"/><path class="cls-1" d="M1303.61,249.66a12.82,12.82,0,0,0-7.87-7.86,14.28,14.28,0,0,0-2-1.11,5.47,5.47,0,0,0-3.33-.44,5.2,5.2,0,0,0-3.05-1c-8.21.08-15.23,6.73-16.34,14.85-1.16,8.5,4.79,15.92,13,17.68s16.51-2.47,18.85-10.73a.09.09,0,0,0,0-.05A13.09,13.09,0,0,0,1303.61,249.66Z"/><path class="cls-1" d="M1107,688.4c31.34-21.59,55-52.83,75.54-84.4,8.54-13.12,16.53-26.57,24.56-40,2.85-4.78,5.69-9.57,8.74-14.23a76.2,76.2,0,0,1,5.45-7.1c.19-.25-.87.24.19-.08-3.22,1,2.79-.42,1.21-.08l4.66-1q10.18-2.19,20.37-4.41,16.57-3.63,33.1-7.5c18.28-4.32,36.5-9,54.43-14.57a349.65,349.65,0,0,0,80.25-36.23c64.78-40.18,124.83-99.47,135.48-178.27,1.62-12,2.27-23.46-.91-35.24-3.43-12.69-9.68-24.63-16.86-35.56-21.43-32.65-51.77-59.09-83.17-81.81a550.64,550.64,0,0,0-133.59-71.11c-43.68-16-90.13-26.53-136.78-27.08a282.35,282.35,0,0,0-31.19,1.35c-6.35.63-6.41,10.64,0,10,44.34-4.42,89.22,2.24,131.86,14.47,47,13.47,91.71,34,133.14,59.86,36.51,22.78,71.79,49.56,99.14,83.09,14.51,17.79,30.51,41.26,29.91,65.33-1.94,77-59.81,138.54-120.34,178.78a339.35,339.35,0,0,1-76.83,38.58C1308.47,514,1270,522.1,1231.94,530.3c-5.88,1.27-13.62,1.27-18.2,5.71a50.31,50.31,0,0,0-6.56,8.71c-6.85,10.44-13,21.38-19.43,32.07-18.6,30.71-38.81,61.23-65.06,86a174,174,0,0,1-20.77,17c-5.26,3.63-.27,12.3,5,8.64Z"/><path class="cls-1" d="M1287,320.76c-24.11-17.38-57.53-18-81.47.13-25.7,19.41-30.71,52.61-18.15,81.22,9.89,22.54,31.33,35.7,56,33.09,23-2.44,44.78-15.6,58.28-34.28,7.09-9.82,11.7-21.91,11.25-34.14-.51-14.11-7.51-26.54-17.38-36.3-4.59-4.53-11.66,2.53-7.08,7.07,14.67,14.49,18.75,34,8.44,52.29-9.54,16.92-27.26,29.33-46,34s-38.65-.35-49.72-17.15c-14.45-21.91-15-52.51,3.78-72,20.6-21.31,53.55-22.19,77-5.26,5.23,3.77,10.23-4.9,5-8.64Z"/><path class="cls-1" d="M791.45,637.08c3,57.5,24.35,112.61,66.3,152.87,41,39.36,96,61.13,151.56,69.49a423.65,423.65,0,0,0,106.79,1.94c6.34-.65,6.41-10.66,0-10C1057.25,857.49,996.26,853,940.91,831c-48.89-19.47-91.37-53.9-115.67-101.07-14.8-28.72-22.13-60.66-23.79-92.8-.33-6.4-10.34-6.44-10,0Z"/><path class="cls-1" d="M1111.7,860.35a83,83,0,0,1,13.37,40.26c.77,13.24-1.28,26.32-4.26,39.18-1.06,4.55,3.42,7.38,7.34,5.64,12.18-5.4,23.29-13.2,30.52-24.59,5.48-8.63,8-18.55,9.42-28.57l-8.36,2.21c13.84,15,14.45,35.21,17.14,54.37.44,3.15,4.9,4.61,7.34,3,20.42-13.51,27.89-37.11,32.67-59.92l-8.35,2.21c10.22,8.49,12.78,24.2,15.17,36.54.83,4.24,1.09,9.35,3.11,13.25a5.82,5.82,0,0,0,4.42,3.42c3.94.54,5.78-3,7.66-5.79,20.9-31,25.86-73.68,3.79-105.36-11.23-16.1-26.52-28.39-42.38-39.67-17.75-12.63-35.54-25.07-53-38-25.33-18.75-53.4-35.69-74.64-59.28a101.71,101.71,0,0,1-22-38.34c-5.59-18.35-6.15-37.72-5-56.74.37-6.43-9.63-6.41-10,0-1.74,30,1.33,61.07,18.09,86.79,15.21,23.36,38.49,40,60.75,56.05,14.94,10.79,29.7,21.78,44.53,32.71,16.75,12.34,34.64,23.21,50.79,36.36,13.33,10.85,26.63,24.18,32.74,40.61s6,34.45,1.32,51.12a93.12,93.12,0,0,1-6.35,16.44c-1.31,2.62-2.72,5.19-4.24,7.69-.79,1.3-1.6,2.57-2.44,3.83-2,3-3.34,2.84,1.47,3.32,3.93.4,3.69,1.38,3.22-.59-.23-1-.45-1.92-.65-2.88-.58-2.83-1.08-5.67-1.63-8.5-2.7-13.76-6.22-30.6-17.57-40-2.67-2.22-7.52-1.79-8.36,2.21-4.18,20-10.06,42-28.08,53.93l7.35,3c-3-21.3-4.38-42.19-19.71-58.78-2.33-2.53-7.83-1.56-8.35,2.21-1.23,8.79-3.18,17.52-7.81,25.2-6.31,10.46-16.58,17.12-27.53,22l7.34,5.64c7-30.05,7-60.36-10.11-87.14-3.46-5.4-12.12-.39-8.64,5.05Z"/><path class="cls-1" d="M901.91,859.54c-41.87,41.73-95.86,66.63-151.79,83.72-6.14,1.87-3.52,11.53,2.66,9.64,47.43-14.49,93.84-34.33,132.87-65.43A279.63,279.63,0,0,0,909,866.61c4.57-4.54-2.5-11.62-7.07-7.07Z"/><path class="cls-1" d="M910.91,138.54c-10.44,10.09-22.47,19.2-36.61,23.26-11.51,3.31-23.25,2.72-34.77-.51-29.32-8.24-55-28.47-80-45-35.54-23.52-72.23-45.06-112.39-59.78-53-19.43-109.8-26.11-166-22.48-67.24,4.34-134.52,19.23-196.56,45.67-61.38,26.15-117.67,64.88-161,115.91C74.64,253.14,43,324.29,27.76,397.94A542.14,542.14,0,0,0,16.63,513.77a548.53,548.53,0,0,0,4.48,64c2.65,20.51,5.78,41.52,11.56,61.41,9.72,33.5,36.14,65.76,25.41,102.28-4.34,14.75-13.21,27.7-21.74,40.29-9,13.32-18.08,26.65-24.27,41.58C1.17,849.66-2.78,880.4,2,908.49c5.5,32.23,24.32,60,49.67,80.13,51.86,41.19,119.75,57.45,184.38,63.92,51.85,5.19,104.28,3.54,156.3,3.19,59.93-.41,119.91-.89,179.8,1.55,50.52,2.06,102.07,5,149.71,23.39,30.48,11.8,59.48,30.82,82.95,53.47,11.16,10.77,22.79,22.9,37.8,28.1,7.77,2.7,18.6,3.81,24.69-2.93,5.7-6.32,4.07-16.27,2-23.7-2.86-10.31-7.73-20.15-12.84-29.52A227.5,227.5,0,0,0,812,1048.93c-25.87-24.32-55.69-45-87.08-61.51-35.16-18.53-73.3-30.57-112-39a695.79,695.79,0,0,0-82.06-13.22c-22.24-2.1-44.55-3.5-66.84-5.05-53.32-3.69-106.88-7.27-159.65-16-22.36-3.7-44.86-8.2-66.23-15.88-15.22-5.47-36-14-40.18-31.53-4-16.72,7.23-36,18.07-48.12,4.29-4.77-2.76-11.87-7.07-7.07-11.79,13.15-22.29,31.74-21.7,49.83.68,20.7,17.39,33.17,34.61,41,19.1,8.71,39.75,13.76,60.27,17.85,25.2,5,50.74,8.36,76.28,11.13,50.89,5.52,102,8.19,153,12.19,61.19,4.79,123.58,15.63,180.45,39.3,32.81,13.66,63.81,32.52,91.6,54.63,22,17.53,42.57,37.43,57.38,61.56a219.28,219.28,0,0,1,14.55,27.32c2.89,6.67,7.67,16.81,5.46,24.28s-15.65,2.31-20.44-.21c-14.25-7.51-24.9-20.44-36.7-31.1-12.22-11-26.37-20.49-40.37-29.09a239.55,239.55,0,0,0-42.66-20.68c-22.84-8.41-46.26-13.38-70.35-16.4-54.81-6.89-110.49-7.38-165.66-7.68-55.86-.3-111.72.77-167.58.51-60.9-.27-122.3-4.33-180.43-23.9-57.37-19.32-119.38-57.55-126-123.54-2.88-28.82,3.27-60,17.41-85.31,14.67-26.27,38-49.63,42-80.63,4.74-36.73-20.92-67.3-29.21-101.42-10.08-41.46-14.56-84.43-14.29-127.07C27.1,427,43.93,349.32,79.18,280.45a400.44,400.44,0,0,1,138-153.76C273,90.39,336.39,67.32,401.44,54.54,463,42.45,527,38.11,588.84,50.47c45.66,9.13,88.5,27.21,128.44,50.91,30.17,17.9,58.15,39.51,88.92,56.38,22.82,12.52,49,21.59,74.71,12.41,14.16-5.06,26.34-14.19,37.07-24.56,4.64-4.48-2.44-11.54-7.07-7.07Z"/><path class="cls-1" d="M1542,247.76c-5.77-3-13.38-1.24-19.37.11a123,123,0,0,0-27.07,9.72c-7,3.42-14.79,7.81-19.07,14.53-5.35,8.42-2.28,19.78,1.79,28,6.17,12.52,16.59,23,27.67,31.25,5.17,3.85,10.16-4.83,5-8.64-10.14-7.56-20-17.77-25-29.54-1.83-4.29-3.57-10.51-1.57-15,1.23-2.7,4.23-4.91,6.67-6.6,8-5.54,17.33-9.31,26.6-12.14a83.52,83.52,0,0,1,12.57-3,28.91,28.91,0,0,1,4.74-.33c-.06,0,1.72.09,1,0,.37,0,2,.72.91.18,5.71,3,10.78-5.68,5-8.64Z"/></g></g></svg>