<svg xmlns="http://www.w3.org/2000/svg" viewBox="0 0 149.46 153.51"><defs><style>.cls-1{fill:#d1cdaa;}</style></defs><title>Asset 15</title><g id="Layer_2" data-name="Layer 2"><g id="Layer_1-2" data-name="Layer 1"><path class="cls-1" d="M147.19,67.61c-1.44-29.42-19.56-58-49.86-64.93A70.58,70.58,0,0,0,80.48.93,22.62,22.62,0,0,0,76.92.29C38.38-3.42,3.31,28.75.2,66.42-1.34,85,6.13,103.35,17.57,117.67a68.63,68.63,0,0,0,6.26,6.8,60.75,60.75,0,0,0,20.09,18.47,68.14,68.14,0,0,0,19.63,7.5,64.53,64.53,0,0,0,35.5,1.09c16.57-4.37,30.71-15.81,39.83-30.13A67.71,67.71,0,0,0,147.19,67.61Z"/></g></g></svg>