<svg xmlns="http://www.w3.org/2000/svg" viewBox="0 0 146.63 146.75"><defs><style>.cls-1{fill:#b3dd4b;}</style></defs><title>Asset 10</title><g id="Layer_2" data-name="Layer 2"><g id="Layer_1-2" data-name="Layer 1"><path class="cls-1" d="M134.77,33.39a82.46,82.46,0,0,0-12.55-13.76C107.64,6.1,87.91-1.85,67.7.37a71.32,71.32,0,0,0-10.49,2,64.19,64.19,0,0,0-21.5,8.89,77.9,77.9,0,0,0-22.13,22C4.61,46-.59,61.32.05,77.33,1.1,103.59,17.25,125.2,39.22,137a81.57,81.57,0,0,0,14,6,65.72,65.72,0,0,0,7.87,2,79,79,0,0,0,8.4,1.35C106.1,150.23,139,122,145.36,86.5,148.62,68.23,145.83,48.7,134.77,33.39ZM81.16,79.75a2.29,2.29,0,0,1,.19.19.61.61,0,0,0,.05.12,3.2,3.2,0,0,0-.5.2l-.93.28-.1,0c-.48,0-1,0-1.49-.07.77-.4,1.52-.84,2.26-1.31Z"/></g></g></svg>