<svg xmlns="http://www.w3.org/2000/svg" viewBox="0 0 1727.88 150.06"><defs><style>.cls-1{fill:#f4e7df;fill-rule:evenodd;}</style></defs><title>Asset 1</title><g id="Layer_2" data-name="Layer 2"><g id="Layer_1-2" data-name="Layer 1"><path class="cls-1" d="M375.55,123.56c-6.44,0-6.45,10,0,10S382,123.56,375.55,123.56Z"/><path d="M10.65,37.24C11.74,66.7,5.78,95.61.4,124.42L11.78,126c-.4-17.16,4-34.44,11-50,7.08-15.78,17.37-32.05,33.13-40.31,11.66-6.11,27.33-6.48,35.68,4.92,8.89,12.16,9.65,29.73,10,44.19.39,17.49-1.31,34.9-1.42,52.38h15.06c-.57-14.5,2.79-28.61,6.57-42.9,4.11-15.48,9.68-33.71,21.34-44.83a18.84,18.84,0,0,1,6.39-4,10.31,10.31,0,0,1,6.63,0,11.43,11.43,0,0,1,5.12,3.92,30.61,30.61,0,0,1,3.93,7.91c5.92,17.17,5.83,36.12,8.19,54,1.31,10,2.91,20,7.13,29.16,2.53,5.5,5.8,10.42,12.64,9.57a15.37,15.37,0,0,0,9.13-4.46c2.09-2.13,2.92-5,4.52-7.43,3.33-5.12-3.29-11.67-8.4-8.4-2.64,1.68-4.72,4.79-7.76,4.93l6.71,3.85c-9-12-9.45-31.51-11.2-46.81-1.91-16.72-2.84-37.15-13.58-51-10.25-13.24-27.65-12.45-39.44-1.81-13,11.7-19.58,30.49-24.41,46.75s-9.51,34.54-8.57,51.54c.53,9.6,15.15,9.76,15.06,0-.16-17.11,1.26-34.17.55-51.28s-2.36-36.73-12.45-51.16c-10.33-14.77-28.67-19-45.43-13.25C38.72,27.93,25,44.79,16,62.17,6.12,81.09-1.3,104.37.19,126c.53,7.59,10.69,7.29,11.59,0,3.62-29.41,7.93-59,5.15-88.72-.37-4-6.43-4.11-6.28,0Z"/><path d="M262.69,63.77c-9.08,1.51-18.21,5.51-22.78,14a24.77,24.77,0,0,0-.81,20.9c4.85,12.19,21.25,24.23,32.81,12.24,8.14-8.44,7.86-22.67,7.06-33.48-.69-9.34-13.31-9.08-14.33,0-2,17.36,1.71,33.67,14.16,46.45,1.8,1.84,5.07,2.94,7.58,2,13.07-4.91,22.46-15.81,23.7-30,.58-6.7-10.25-9.82-13-3.53-3.5,8-6.06,15.09-14.82,18.49l7.58,2C280.33,103.3,277.7,90.5,279,77.42H264.64c.46,5.7.83,11.75-.33,17.33q-.33,1.56-.81,3.09a5,5,0,0,1-.59,1.47c-.15.35-1.59,2.38-.47,1a10.89,10.89,0,0,1-1.42,1.46c1.54-1.31-.06.11-.52.15,2.66-.23-.5-.1-.4-.07,2.23.76-.07,0-.31-.15-1.1-.47,1.6.42-.36-.13-.45-.13-2.3-1-.55-.13a16.49,16.49,0,0,1-1.75-1c-.31-.2-2-1.59-.71-.46a17,17,0,0,1-1.4-1.28c-.44-.47-.89-.93-1.31-1.42-.68-.78.33.64-.64-.87a26.45,26.45,0,0,1-2.2-4c.59,1.41-.25-.84-.32-1.11-.18-.75-.39-1.48-.51-2.24.26,1.57.13-3.73-.07-2.31a10.36,10.36,0,0,1,3.75-7.1c3.2-3,7.5-5,11.59-6.43,6-2.13,3.59-10.53-2.62-9.49Z"/><path d="M328,29.42c.67,17.13,1.74,34.28,4.08,51.28a243.66,243.66,0,0,0,4.54,24.55c1.61,6.61,3.41,20.25,10.27,23.26,2.74,1.2,6.89,1.09,8.34-2.19,3.2-7.27-2.23-15.95-4.29-23.19a228.85,228.85,0,0,1-5.44-24.28c-2.82-16.35-4-32.88-4.84-49.43-.42-8.1-13-8.18-12.66,0Z"/><path d="M395.8,33.17c-20.39,6.39-33.91,25.42-44.4,43-4.3,7.2,2.78,13.75,9.83,12.78,14.68-2,28.43,3.24,42,8.06,15.1,5.37,30.27,9.66,46.38,6.57,4.42-.85,7.28-6.38,6-10.53-1.52-4.82-3.23-10.14-6.78-13.83a7.09,7.09,0,0,0-11.76,3.1c-1.36,5.4,1,10,2,15.28l8.25-10.83c-31.45,2.32-59-22.15-90.74-14.6l9.83,12.78c7.83-16.84,17.48-32.78,32.62-44,3.56-2.65,1.68-9.26-3.25-7.71Z"/><path d="M465.14,64.38c14.12,7.76,32.93,11.31,44.53-2.65,5.57-6.71,11.57-22.28,2.74-29-5.17-3.94-11.5-1-15.93,2.61-7.82,6.33-13.9,16.88-17,26.3-6.53,20.15,4.11,41.16,23.37,49.17,21.81,9.06,50.37-.72,57.28-24.76,2.26-7.85-8.84-12.34-13-5.49S539.35,93.27,532,96.68a29.17,29.17,0,0,1-17.64,1.67C501.84,95.52,491.68,86,492.12,72.44c.27-8.46,4.46-16.4,9.16-23.24a38.78,38.78,0,0,1,4.4-5.49c.37-.38.75-.76,1.15-1.11,1.22-1.07-.94.71.24-.19.3-.23.75-.34,1-.59-1,1-.57,0,.19,0-1.52-.18-.74.3-1.88-.21,1.07.48-.62-.35-.32-.43s.81,1.83.44.82c.13.34.19,1.33.13.11,0,.53.11,1.05.1,1.58a20.35,20.35,0,0,1-3,10C496.26,66,480.69,62.87,469.44,57c-4.85-2.53-9.13,4.71-4.3,7.37Z"/><path d="M770.62,18.84c-5.84,3.66-10.8,9.2-15.31,14.33a122.17,122.17,0,0,0-16.17,23.9C730.46,73.58,722,93.63,725,112.69a27.17,27.17,0,0,0,36.49,21.5c17.19-6.5,24.86-26.69,29.42-43,5.2-18.56,6.9-37.69,8.89-56.79,1-9.2-12.91-10.19-15.51-2.1-5.6,17.37-8.64,37.6-6.74,55.8,1,9.75,3.58,19.42,10,27.1,6.79,8.19,18.2,12,28.66,11,14.3-1.43,22.93-12.78,24.61-26.43.7-5.73-8.84-8.34-11.1-3-2,4.79-4.38,9.87-9.48,12-4,1.71-8.47,1.15-12.5-.31s-6.39-3.48-7.84-5.68c-2.39-3.63-3.29-6.53-4.26-11.15-3.72-17.72.35-37.27,3.92-55.14L784,34.43c.15,14-2,27.45-5,41.05a139.57,139.57,0,0,1-7.34,24.61c-2.68,6.36-6,12-10.65,16.47a15.48,15.48,0,0,1-5.39,3.13c-.7.17-1.4.38-2.12.5,1.72-.29-.65,0-.86,0a10.47,10.47,0,0,1-4.24-.47c-.76-.2-1.5-.44-2.24-.71-2.19-.81,1.14.72-.82-.39a20.53,20.53,0,0,1-1.79-1.11c1.34,1-.36-.38-.52-.53a13,13,0,0,1-3.08-5.67c-1.58-5.66-1-12.84.23-19.48a129.94,129.94,0,0,1,7.64-25.23A228.16,228.16,0,0,1,760.6,40.77c3.46-6.13,7.32-12.36,13.24-16.42,3.34-2.29.3-7.71-3.22-5.51Z"/><path d="M1006.45,25.51c-.22,18.69-.81,37.37-1,56.07-.21,18.49-.79,37-2.6,55.4l13.78-1.86c-.17-.71-.59-3.79-.32-1.45q-.24-2.07-.39-4.14c-.24-3.34-.32-6.69-.31-10a259.65,259.65,0,0,1,1.51-26.73c1.91-18.21,5.5-39,13.12-55.07a58.82,58.82,0,0,1,5.93-10.14c-.76,1,.63-.76.93-1.09.56-.63,1.13-1.25,1.74-1.84s1.18-1.11,1.81-1.62c-1.25,1,.72-.46,1.12-.71.65-.39,1.31-.74,2-1.07,0,0-.79.18.55-.15.72-.18,1.42-.38,2.15-.51-1.93.36.48,0,1.11,0,.31,0,2.57.23,1.64.09s1.43.36,1.74.45a12.56,12.56,0,0,1,4.32,1.86c3.62,2,5.43,3.61,7.19,6.84,1.42,2.6,1.82,5.54,1.59,9.64a46.32,46.32,0,0,1-2.89,12,76.34,76.34,0,0,1-6.48,12.9,91.66,91.66,0,0,1-20.8,24,24.5,24.5,0,0,1-2.07,1.49c-.79.54-1.58,1-2.4,1.53s-1.9,1-2.88,1.54c-.39.19-1.42.51.26-.1l-1.33.47c-.63.19-3.19.88-.61.31-.37.08-2.77.12-1.19.14,1.85,0-.89-.13-.85-.13-3-.4,1,.55-.15,0-.68-.36,1.56,1.05-.35-.25-6-4.09-14.54,4.17-10.2,10.2,14.18,19.67,40.36-9.69,48.92-21,12-15.93,26.16-42.88,13.21-62.16C1068.58,12,1058,5.92,1047.84,5.74c-8.78-.15-16.6,4.69-22,11.29-13.44,16.33-18.09,39.58-21.14,60a298.89,298.89,0,0,0-3.32,37c-.19,8.14-.45,17,1.74,24.9s13.31,5.89,13.78-1.87c1.11-18.45,1-36.93.48-55.4-.51-18.71-2.11-37.37-2.36-56.07-.08-5.49-8.47-5.5-8.53,0Z"/><path d="M1141,45.05a8,8,0,0,1,0-1.38l-.18,1.39a4.22,4.22,0,0,1,.26-.94l-.53,1.25a5,5,0,0,1,.29-.5l-.82,1.07a3.55,3.55,0,0,1,.38-.4l-1.07.83A2.84,2.84,0,0,1,1140,46l-1.28.53a5,5,0,0,1,.76-.2l-1.43.2a2.42,2.42,0,0,1,.71,0l-1.44-.2c.25.06.5.13.74.21,3.51,1.16,7.12-1.91,7.12-5.42A5.63,5.63,0,0,0,1138,35.7c-.31.06-.61.14-.92.22l1.43-.19a10.13,10.13,0,0,0-4,1.08,7.79,7.79,0,0,0-2.79,2.68c-1.35,2.16-1.25,4.53-.93,6.93a5.15,5.15,0,0,0,2.37,3.09,5.31,5.31,0,0,0,3.29.61,5.12,5.12,0,0,0,4.47-5.07Z"/><path d="M1135.84,87c-1.5,9.1-3.7,18.05-5.74,27-2,8.62-4.57,18-4,26.86.4,6.13,10.38,8.47,11.48,1.56,1.45-9.06,1.59-18.33,2.87-27.44s2.6-17.92,3.29-26.95c.33-4.48-7.18-5.58-7.92-1.07Z"/><path d="M1219.45,27.16c11.45-3.21,23.38-6.71,35.34-7.25,3.6-.16,5.45-.17,8.19.68-.15-.05,1,.52.6.26.89.54,0-.13.1,0,.63,1,.09.13.08,0a8,8,0,0,1,0,1.47c-.09,1.12.33-1.31-.06.34-.13.58-.27,1.15-.43,1.72a28.21,28.21,0,0,1-3,6.91c-3.62,6.91-8,13.43-12.21,20-9.75,15.11-20.49,31-24.44,48.85-2.06,9.27-2.39,19.87,3.18,28.06,5.08,7.47,13.33,11,22.15,11.56,10.36.63,20.86-2.8,30-7.48,8.72-4.49,26.11-14.84,23.36-26.35a6.56,6.56,0,0,0-6.2-4.72c-6.34-.2-9.5,4.93-13.89,8.63a62.92,62.92,0,0,1-10.53,7c-6.9,3.71-14.24,6.05-21.51,5.81-.34,0-2.84-.24-2-.11a14.89,14.89,0,0,0-1.81-.41c-.7-.18-1.39-.4-2.07-.63-.39-.12-1.44-.67.08.07-.42-.2-.82-.42-1.23-.64s-.58-.36-.88-.54c-1-.64,1,.9.07.1-.52-.45-1-.93-1.48-1.42-.85-.89.73,1.09,0,.06-.2-.29-.39-.6-.58-.89-1-1.46-.43-.5-.75-1.4-2.53-7.28,0-16.8,3-24.82,5.54-14.81,15.37-29.32,23.53-43.46,5.18-9,14.93-23.61,8.55-34.15-3.8-6.27-12-7.26-18.62-7-13.46.6-26.86,4.69-39.65,8.59-7.07,2.15-4.11,13.13,3.07,11.12Z"/><path d="M1349.51,41.65a89.36,89.36,0,0,1,13.27-7.5,27.23,27.23,0,0,1,4.2-1.4c1.33-.32,0,0,.78-.15s1.32-.51.52-.09c.58-.31.94.7,0,0-.31-.25-.28-.47-.86-.93.66.52-.75-.56,0-.21a2.9,2.9,0,0,1,.19.71c0-.3-.11-1.29-.07-.44,0,.66-.19,3.48,0,2.09a33.86,33.86,0,0,1-1,4.22c-4,14.4-11.1,27.19-17.13,41.06-2.73,6.28-6.23,13.21-6.38,20.23-.06,3.25,2.6,7.47,6.08,8,21.93,3.21,41.69-6,62.49-11.26,10.21-2.58,5.88-18-4.34-15.73-18.8,4.19-36.26,12.55-55.94,10.72l8.28,8.29c0-.25.15-1.22,0-1.37-.28-.35-.48,1.8,0,.12.39-1.34.63-2.73,1-4.07,1-3.48,2.29-6.89,3.58-10.28,3.13-8.27,6.55-16.44,9.59-24.74,3.33-9.11,13.16-33.56-2.15-37.55-9.46-2.46-20.45,6.46-27.4,11.51-5.21,3.79-.48,12.45,5.16,8.83Z"/><path d="M1528.33,29.32c-12,5.61-25,10.32-35.51,18.56a42.23,42.23,0,0,0-12.43,15.64,45.49,45.49,0,0,0-3.23,9.5c-1.12,5.3.72,8.17,4.78,11.4,25.3,20.09,53.77-10.56,67-30.31L1535.08,46c-9.09,20.84-25.24,57-2.87,75.06,21.56,17.44,58.42,5.06,71.77-17.3,5.25-8.82-8.17-16.53-13.68-8-8.22,12.7-35.47,23.53-47.72,10.72-5.24-5.48-3.89-16.54-2.28-24.25,2.14-10.23,5.68-20.32,9.43-30.06,3.39-8.82-9.93-13.44-14.65-6.17-8.5,13.09-28.46,39.47-45.95,25.19l2.15,5.19c2.4-22,24.5-30.55,41.74-39.08,5.38-2.66.67-10.52-4.69-8Z"/><path d="M1717.18,3c-7.67,14.71-15.15,29.69-20,45.59a98.3,98.3,0,0,0-4.5,23.53c-.34,6.73.25,17.15,7.54,20.23,3.21,1.36,6,.27,7.3-3,2.26-5.52,0-12.68.21-18.54a88.05,88.05,0,0,1,3.79-20.58c4-14.21,9.79-27.88,15.82-41.34,3-6.74-6.57-12.73-10.12-5.92Z"/><path d="M1698.78,137.67c8.51,0,8.52-13.22,0-13.22s-8.52,13.22,0,13.22Z"/></g></g></svg>