<svg xmlns="http://www.w3.org/2000/svg" viewBox="0 0 401.8 177.61"><title>Asset 3</title><g id="Layer_2" data-name="Layer 2"><g id="Layer_1-2" data-name="Layer 1"><path d="M99.63,59.41c-2.69-7.5-14.74-4.27-12,3.31A75.88,75.88,0,0,1,90.15,106Q75.57,84.09,61,62.21l1.15-6.54c1.38-7.84-10.63-11.21-12-3.31-.2,1.13-.4,2.27-.59,3.4a4.72,4.72,0,0,0-2.7,3.78L39.28,114c-.46,3.36.82,6.65,4.36,7.67,3,.86,7.09-1,7.67-4.36L57.88,80,86.6,123.1c2.29,3.43,8.8,4.65,10.77,0C105.94,102.81,107.1,80.25,99.63,59.41Z"/><path d="M181.35,102.94c-.15,7.89-10.33,12-17,9.48-9-3.43-13.16-14.29-13.16-23.22,0-4.77,1-10.14,4.51-13.67,2.54-2.58,7.31-4.37,10.7-2.31,5.12,3.1-1.13,11.46-6.11,9.47-7.46-3-10.7,9.09-3.32,12,11.4,4.53,23-6.49,23.72-17.59,1-14.56-15.7-20.28-27.17-15-13.32,6.06-16.43,22.6-13.92,35.67,2.38,12.47,11.51,25.21,24.66,27.5,14,2.43,29.27-7.43,29.55-22.31C194,94.91,181.51,94.91,181.35,102.94Z"/><path d="M304.77,56.25C302,48.79,290,52,292.74,59.57a34.66,34.66,0,0,1-6.47,35.05,88.93,88.93,0,0,1-21.89-31.05c-2.23-5.4-10.14-6.4-12,0q-4,13.77-8.08,27.53-5.7-15.91-11.39-31.85c-2.68-7.5-14.73-4.27-12,3.32q9,25.16,18,50.32c2,5.65,10.21,6.18,12,0l9.09-31a99.9,99.9,0,0,0,22.12,25.56,6.48,6.48,0,0,0,8.82,0C305.59,95.45,311.35,74.05,304.77,56.25Z"/><path d="M348.22,24.2c1.88-10,11.34-19.16,22.2-16,10.68,3.09,12.41,14.4,9.52,23.54-3.56,11.29-10.35,21.37-16.2,31.55-5.41,9.41-11.16,19.14-12.3,30.13-.29,2.86,2.37,6.15,5.13,6.74,5.82,1.24,10,.29,15.3-2.18,3.37-1.58,2.58-6.16,0-7.93-3.77-2.61-7.25-2.6-11.58-3.37l5.13,6.74c-.1-9.38,4.89-18.68,8.91-26.88,4.86-9.91,10.4-19.76,13.76-30.31,2.84-9,3.28-18.1-2.32-26.07C380.41,2.5,371.17-1.69,361.94.65c-10.66,2.7-16.86,12.49-18.05,23-.28,2.45,3.87,3,4.33.59Z"/><path d="M369.55,130.79l3.91,0a5.49,5.49,0,1,0,0-11l-3.91,0a5.53,5.53,0,0,0,0,11.06Z"/><path d="M6,170.54c102.11-1.38,204.19,12.06,306.26,5,29.15-2,58.06-5.56,86-14.14,5.21-1.6,4.58-10.51-1.34-9.95-25.3,2.4-50.58,5.37-75.94,7.2-25.54,1.85-51.16,2.44-76.76,2.43-50.86,0-101.67-3-152.52-4-28.6-.57-57.16-.45-85.73,1.06-7.9.41-8,12.48,0,12.37Z"/></g></g></svg>