<svg xmlns="http://www.w3.org/2000/svg" viewBox="0 0 1609.75 1489.35"><defs><style>.cls-1{fill:#f7eae4;}.cls-2{fill:#f4cc5b;}.cls-2,.cls-3{fill-rule:evenodd;}.cls-3,.cls-4{fill:#ffd9ab;}</style></defs><title>Asset 14</title><g id="Layer_2" data-name="Layer 2"><g id="Layer_1-2" data-name="Layer 1"><rect class="cls-1" width="1609.75" height="1489.35"/><path class="cls-2" d="M1379.57,623c-23.3-68.68-47.9-137.6-77.14-203.69-28.2-63.77-62.87-125.66-110.67-175.11C1060.81,108.72,756.2,105.11,597,170.11c-116,47.34-215.12,135.13-287.7,241.51-75,110-127.45,244-130.63,381-1.61,69.27,10,138.49,37.47,201.52C242.91,1055.66,282.78,1109.68,329,1156c85.95,86.15,193.71,145.73,307.62,177.48a729,729,0,0,0,344,11.52c114.26-23.94,226.34-76.26,313.92-158.93,44-41.59,81.82-91.38,106.22-148.66,27-63.39,34.63-133.43,28.64-202.32C1423,762.28,1402.8,691.5,1379.57,623Z"/><path class="cls-3" d="M1302.66,754.34C1289,689.44,1259.56,630,1227,573.71c-29.07-50.32-59.69-100.53-94.89-146.29-33.31-43.32-72.22-82.51-119.33-108.32-48.3-26.47-102.63-35.9-156.58-34.46-55,1.47-109.35,13.89-162.24,29.46q-13.38,3.94-26.71,8.15-5.17.9-10.35,1.93a390.71,390.71,0,0,0-142.46,59.74c-41.19,28-77.43,64.23-107,105.6A467.39,467.39,0,0,0,340,628.09a452.82,452.82,0,0,0-17.87,156.64A469.18,469.18,0,0,0,360,941.13c21.3,49.11,50.72,94.42,86.94,132.43a416.21,416.21,0,0,0,131.38,92.71c50,22.43,103.65,35.38,157.59,41,54.89,5.71,110.46,4.06,165.16-3.11,58.71-7.69,117.14-22.06,171.83-46.37,51-22.69,99-54.33,138.13-96.11,35.7-38.11,64.76-83.68,82-134.43C1311.93,871.57,1314.84,812,1302.66,754.34Z"/><path class="cls-4" d="M703.57,189.1c-7.69,23.44-1.73,49.63,2,73.27.94,5.89,8.58,7.9,13.13,5.34a14.94,14.94,0,0,0,6.74-7.46c1-2.46.81-5.1,1.9-7.48,3.3-7.28-4.72-13.66-11-8.46a25.91,25.91,0,0,0-4.93,5.56,10.52,10.52,0,0,0-1.1,1.73c-.9,2.08,2-1.09-.66.67l13.13,5.34c-5.22-22.14-10.54-44.12-8.43-67,.6-6.47-9-7.12-10.86-1.47Z"/><path class="cls-4" d="M1056.89,280.35c6.49-8.2,13.07-16.33,19.41-24.65,3-3.9,5.89-7.84,8.7-11.87,3.2-4.58,7.11-9.17,5.4-15a6.58,6.58,0,0,0-7.9-4.48c-5.24,1.06-7.35,5.91-10,10.09q-4.12,6.62-8.51,13.05c-5.72,8.38-11.71,16.56-17.59,24.81-4.35,6.09,5.75,14,10.45,8.07Z"/><path class="cls-4" d="M1247.32,490.13a80.77,80.77,0,0,0,20.5-12c6-4.89,12.29-10.88,13.14-18.89.35-3.24-3.76-6.46-6.82-5.2-6.39,2.63-10.31,8.22-15.38,12.71a87.19,87.19,0,0,1-16.42,11.54c-6.29,3.4-1.9,14.68,5,11.82Z"/><path class="cls-4" d="M1098.09,1217.85a104.8,104.8,0,0,0,9.17,20.45c3.3,5.57,7.91,13,14.71,14.42,2.55.51,5.57-1.17,5.4-4.11-.36-6.22-4.81-11.29-7.94-16.43a89,89,0,0,1-8.33-17.92c-2.75-8.19-15.76-4.69-13,3.59Z"/><path class="cls-4" d="M401.25,1136.18c1.93-5.59,4.57-10.87,6.5-16.46,1.4-4-3.95-6.42-6.74-3.92-5.33,4.78-7.8,10.84-9.25,17.77a4.92,4.92,0,0,0,9.49,2.61Z"/><path class="cls-4" d="M223.11,904c20.38.89,45.79-4.2,58.7-21.39,3.29-4.37-2.8-8.24-6.6-6.61-8.48,3.64-16.3,8.58-25,11.75a82.84,82.84,0,0,1-27.11,5c-7.27.13-7.22,10.94,0,11.25Z"/><path class="cls-4" d="M328.54,479.91a54.24,54.24,0,0,0,9.48,22c4.43,5.94,11.19,12.94,19.11,12.76a4.41,4.41,0,0,0,3.76-6.56c-2.94-5.53-9-9-13-13.78a43.48,43.48,0,0,1-8.46-17.37c-1.82-7.08-12.24-4.05-10.85,3Z"/><path class="cls-4" d="M528.76,272c-.34,8.35,1.09,16.88,5.37,24.16,3.84,6.52,10.88,13.59,19,13.5,4.82-.05,6.23-5.38,3.62-8.72-3.48-4.44-8.73-6.86-11.88-11.75-3.32-5.16-4.36-11.14-4.44-17.19-.08-7.5-11.32-7.46-11.62,0Z"/><path class="cls-4" d="M729,1254.3c-3.92,14.56-6.19,30.63-4.55,45.7.94,8.69,14.2,9.14,13.91,0-.47-14.4-.53-28.24,2.67-42.39,1.76-7.8-9.93-11.1-12-3.31Z"/><path class="cls-4" d="M1305.7,985.07c5.75,22.67,28.42,33.78,50,36.66,5.25.7,11,1.35,16.06-.54,5.71-2.14,7.64-8.81,1.55-11.89-4.93-2.49-11.26-1.81-16.62-2.36a69.62,69.62,0,0,1-14.62-3.18c-11-3.64-20.83-10.65-25.2-21.76-2.66-6.75-13-4.3-11.12,3.07Z"/></g></g></svg>