<svg xmlns="http://www.w3.org/2000/svg" viewBox="0 0 1252.81 1231.17"><defs><style>.cls-1{fill:#f4cc5b;}.cls-1,.cls-2{fill-rule:evenodd;}.cls-2,.cls-3{fill:#ffd9ab;}</style></defs><title>Asset 13</title><g id="Layer_2" data-name="Layer 2"><g id="Layer_1-2" data-name="Layer 1"><path class="cls-1" d="M1201.09,493.9c-23.29-68.67-47.89-137.59-77.13-203.68-28.21-63.77-62.87-125.66-110.67-175.11C882.34-20.37,577.72-24,418.47,41c-116,47.34-215.11,135.13-287.7,241.5-75,110-127.44,244-130.62,381-1.61,69.26,10,138.48,37.47,201.52,26.82,61.49,66.68,115.51,112.91,161.84,86,86.15,193.71,145.73,307.63,177.48a728.94,728.94,0,0,0,344,11.52C916.36,1192,1028.45,1139.66,1116,1057c44.06-41.59,81.82-91.38,106.23-148.66,27-63.4,34.63-133.43,28.64-202.32C1244.56,633.19,1224.33,562.41,1201.09,493.9Z"/><path class="cls-2" d="M1124.18,625.25c-13.7-64.9-43.09-124.36-75.61-180.64-29.07-50.31-59.69-100.52-94.89-146.28C920.36,255,881.45,215.82,834.35,190c-48.3-26.47-102.64-35.9-156.58-34.46-55,1.47-109.36,13.89-162.24,29.46q-13.39,3.93-26.71,8.14-5.19.91-10.35,1.94A390.86,390.86,0,0,0,336,254.82c-41.2,28-77.44,64.24-107,105.61A467.43,467.43,0,0,0,161.49,499a452.91,452.91,0,0,0-17.88,156.65A469.72,469.72,0,0,0,181.55,812c21.31,49.1,50.73,94.42,86.95,132.43a416.28,416.28,0,0,0,131.37,92.71c50,22.43,103.66,35.38,157.6,41,54.88,5.71,110.46,4.06,165.16-3.11,58.71-7.69,117.14-22.06,171.82-46.37,51-22.69,99-54.33,138.14-96.12,35.69-38.1,64.75-83.68,82-134.42C1133.45,742.48,1136.37,683,1124.18,625.25Z"/><path class="cls-3" d="M525.09,60c-7.69,23.44-1.73,49.63,2,73.26.94,5.9,8.58,7.91,13.14,5.35a15,15,0,0,0,6.74-7.46c1-2.46.81-5.1,1.89-7.48,3.31-7.28-4.71-13.66-11-8.47a26.07,26.07,0,0,0-4.92,5.56,11.89,11.89,0,0,0-1.11,1.74c-.9,2.08,2-1.09-.66.66l13.14,5.35c-5.23-22.14-10.55-44.12-8.43-67,.59-6.47-9-7.12-10.87-1.47Z"/><path class="cls-3" d="M878.42,151.25c6.49-8.19,13.07-16.32,19.41-24.64,3-3.9,5.89-7.85,8.7-11.87,3.2-4.58,7.11-9.17,5.4-15a6.58,6.58,0,0,0-7.9-4.48c-5.24,1.06-7.35,5.91-10,10.09-2.76,4.41-5.58,8.76-8.51,13-5.72,8.37-11.71,16.56-17.6,24.81-4.34,6.09,5.75,14,10.46,8.06Z"/><path class="cls-3" d="M1068.85,361a80.77,80.77,0,0,0,20.5-12c6-4.9,12.28-10.88,13.14-18.9.35-3.23-3.77-6.45-6.82-5.19-6.39,2.63-10.31,8.21-15.39,12.71a87,87,0,0,1-16.42,11.54c-6.28,3.4-1.89,14.68,5,11.82Z"/><path class="cls-3" d="M919.61,1088.76a105.1,105.1,0,0,0,9.18,20.45c3.3,5.57,7.9,13,14.71,14.42,2.55.51,5.57-1.17,5.4-4.12-.37-6.21-4.81-11.28-7.94-16.42a88.44,88.44,0,0,1-8.33-17.92c-2.75-8.19-15.77-4.7-13,3.59Z"/><path class="cls-3" d="M222.78,1007.09c1.93-5.59,4.57-10.87,6.5-16.46,1.4-4-3.95-6.43-6.74-3.93-5.33,4.79-7.81,10.85-9.25,17.77a4.93,4.93,0,0,0,9.49,2.62Z"/><path class="cls-3" d="M44.63,775c20.39.89,45.8-4.2,58.71-21.39,3.28-4.37-2.81-8.24-6.6-6.61-8.48,3.64-16.3,8.58-25,11.75a82.85,82.85,0,0,1-27.12,5c-7.26.13-7.22,10.94,0,11.25Z"/><path class="cls-3" d="M150.07,350.82a54.16,54.16,0,0,0,9.48,22c4.43,5.94,11.19,12.94,19.11,12.76a4.41,4.41,0,0,0,3.76-6.56c-2.95-5.53-9-9-13-13.78a43.35,43.35,0,0,1-8.46-17.37c-1.82-7.08-12.25-4.05-10.85,3Z"/><path class="cls-3" d="M350.29,142.92c-.34,8.35,1.08,16.88,5.37,24.16,3.83,6.51,10.88,13.59,18.95,13.5,4.81-.05,6.23-5.38,3.61-8.72-3.47-4.44-8.73-6.86-11.87-11.76C363,155,362,149,361.91,142.92c-.09-7.5-11.32-7.46-11.62,0Z"/><path class="cls-3" d="M550.55,1125.2c-3.93,14.57-6.19,30.64-4.56,45.71.94,8.69,14.21,9.14,13.91,0-.46-14.4-.53-28.25,2.67-42.39,1.77-7.8-9.92-11.1-12-3.32Z"/><path class="cls-3" d="M1127.22,856c5.75,22.67,28.42,33.78,50,36.65,5.25.7,11,1.36,16.07-.53,5.7-2.14,7.64-8.81,1.55-11.89-4.93-2.49-11.26-1.81-16.63-2.36a70.4,70.4,0,0,1-14.62-3.18c-11-3.64-20.82-10.66-25.2-21.76-2.66-6.75-13-4.3-11.12,3.07Z"/></g></g></svg>