<svg xmlns="http://www.w3.org/2000/svg" viewBox="0 0 1657.31 1141.52"><defs><style>.cls-1{fill-rule:evenodd;}</style></defs><title>Asset 25</title><g id="Layer_2" data-name="Layer 2"><g id="Layer_1-2" data-name="Layer 1"><path d="M1155.67,295.8a572.36,572.36,0,0,1,62.62-130c30.31-46.65,68.9-89.62,117.56-117.52C1383.06,21.25,1444.54,7,1497,26.64c44.9,16.85,76.45,58.15,91,102.69,13.49,41.36,15.44,90.91-6.1,130a199,199,0,0,1-57.6,64.38c-8.7,6.14-27.73,13.38-24.2,27.1,1.56,6.07,7.05,10.74,11.47,14.8,9.57,8.81,19.62,17.09,28.82,26.31,23.81,23.87,42.82,52.12,57.91,82.2,27.33,54.5,44.29,118.47,40.25,179.78-3.82,57.83-47.72,111.29-105.37,122.35-28.91,5.55-56.3-4.7-80.52-20.14-29.51-18.82-53.27-45.78-74.05-73.61-10.57-14.17-20.53-28.77-30.39-43.43-5.16-7.67-15.75-4.29-16.64,4.51C1320.86,749.72,1277.85,854.17,1214,939.3c-31.25,41.66-69,79.39-112.88,107.71-39.43,25.45-83.51,41.31-128.87,52.53-102.49,25.35-211.36,29.56-316.08,18.15-52.08-5.67-104-15.88-153.65-32.75-51.6-17.53-99.24-44.48-143.71-75.76A733.7,733.7,0,0,1,225.64,888.77c-33.89-39.28-64.34-83.12-84.33-131.21A306.72,306.72,0,0,1,130,725.47c-2.94-10.08-16.69-7.41-17.54,2.37C111,744.59,101,758.51,83.94,761.71c-15.22,2.86-31.57-3.37-41.51-15.13-7.8-9.23-11.78-22.86-10.92-34.85,1.17-16.25,13.29-22.63,28.54-22.87l-2.37-17.54C44.6,674.83,31.15,673.58,23.75,661c-6.84-11.67-7.13-26.89-4.2-39.78,3-13.32,13.15-21.84,26.52-24.08,16.76-2.81,33.1,4.68,45,16.06,4.67,4.45,13.37,2.8,14.93-3.94A717.58,717.58,0,0,1,238.65,330.78c32.35-41.44,69.68-79.57,112-111,43.58-32.38,91.35-56.22,143.07-72.55C606.8,111.55,728.11,98.41,845.5,118.85c95.86,16.68,188.93,55.19,264.81,116.72a494.86,494.86,0,0,1,48.47,44.9c10.59,11.24,28.11,27,28.24,43.26a22.06,22.06,0,0,1-.79,4.19,6.48,6.48,0,0,1-2.49,3c-3,2.22-6.18,2.66-10.83,2.32A21.79,21.79,0,0,1,1153.77,317c-1.78-7.12-.29-14.36,1.9-21.22,3.51-11-13.73-15.67-17.22-4.75-5.1,16-4.8,34,6.87,47a40.19,40.19,0,0,0,35.81,12.52c12.63-2.06,22.54-11.43,23.63-24.45,1.63-19.65-13.91-36.9-26-50.39-66.92-74.34-156.38-126.71-251.6-155.82-115.91-35.44-240.19-36.21-358.24-11-60.82,13-121.58,31.23-175.93,62-48.91,27.67-92.86,64-131,105.11-76,81.91-132,183.44-163.25,290.59q-5.49,18.79-9.87,37.89l14.93-3.94c-16.7-15.95-39.24-25-62.4-20.65-19.12,3.58-34.65,17.46-39,36.55-4.14,18.17-3.39,39.78,7.34,55.68,12.13,18,32.69,21.81,52.76,16.43,9.66-2.59,7.79-17.7-2.38-17.54-17.22.27-34.48,6.36-42.18,22.92-6.4,13.78-5.1,30.5,0,44.49C29.38,770,65.45,789.17,97.68,776.14c20.35-8.22,30.81-27.12,32.66-48.3l-17.55,2.38c14.38,49.3,40.84,94.67,71.53,135.53,36.21,48.21,78.91,91.42,125.94,129.1,46.13,37,96.66,70.34,151.24,93.47,48.51,20.56,100,33.46,152,41.58,109,17,222.55,15.57,330.89-5.89,46.62-9.24,93.4-22.46,135.84-44.25,47.52-24.39,89.08-59.85,124-100,72.34-83.34,121.75-189.5,140.19-298.24q3.2-18.86,5.1-37.89l-16.64,4.5c38.89,57.83,85,124.74,156.17,144.18,57.41,15.66,117.89-21.73,146.6-70.16,32.87-55.46,23.07-126.9,5.94-186-19.48-67.23-55-127.79-107.47-174.33-3.87-3.42-7.78-6.8-11.53-10.35-1.18-1.11-2.31-2.26-3.45-3.4-1.73-1.7-.58-1.58-1.67-1.94-1.76-.58,1.48-2,0,.38.61-1,0,2.15.08.82,0,2.13-1.12,1.9-1.29,3.48.06-.59,2.87-2.19.66-.77,1.23-.79,2.42-1.67,3.65-2.48,21.64-14.09,40.37-30.13,56.59-50.43,16.81-21,29.53-42.88,34.94-69.48,4.92-24.18,4.64-49,.5-73.25-8.48-49.76-34.87-97.71-76.57-127-48.06-33.81-110.68-33.19-164.58-14.67C1262.1,50.21,1190.89,157.49,1149.78,260.2q-6.1,15.26-11.33,30.85C1134.79,302,1152,306.66,1155.67,295.8Z"/><path d="M359.69,293.53c56.65,6.3,109.49,37.5,144.54,82.1C541,422.43,554.76,484.21,544,542.5c-6.11,33.12-19.5,65.13-40.22,91.81-2.89,3.73-3.86,9,0,12.63,35.11,33.18,56.52,77.85,64.37,125.24,7.71,46.5,2,96.37-17.36,139.46a211.15,211.15,0,0,1-45.61,65.63c-8.27,8,4.36,20.62,12.63,12.62,36.71-35.5,59.78-83.59,67.79-133.8,8.19-51.33,2-104.52-19.56-152a223.12,223.12,0,0,0-49.63-69.81v12.63c40.5-52.16,56.68-120.17,45.28-185.13-11-62.74-50.2-117.58-103.65-151.55a231,231,0,0,0-98.37-34.59c-4.8-.53-8.93,4.49-8.93,8.93,0,5.27,4.12,8.39,8.93,8.93Z"/><path class="cls-1" d="M281.52,558.9c-14.37,16-16.11,51.11,17.8,45.76,17.63-2.78,27.43-27.09,16.67-41.33C303.27,546.49,290.12,549.28,281.52,558.9Z"/><path d="M375.37,675.53c-28.74-6.46-58.66,6.81-75.46,30.54-17.05,24.11-14.76,56.82,2.26,80.3,17.54,24.22,46.8,36.18,76.08,28.24,28-7.6,51.4-31.37,55.49-60.51,4.85-34.57-17.52-64.93-49.34-76.49-9.09-3.3-13,11.19-4,14.47,21.94,8,38.91,28,39.08,51.95.17,23.64-15.81,44.26-37.13,53.35a55,55,0,0,1-62.77-13.24c-15.32-16.38-21.91-41.78-11.54-62.48C319.38,699,346.23,684.34,371.38,690c9.41,2.11,13.42-12.35,4-14.46Z"/><path d="M687.61,689.27,801.24,582.42c4-3.72,7.9-8.51,12.47-11.48,1.65-1.07,1.52-1.12,2.31-.88,1.77.55,3.55,3.52,4.66,5a79.85,79.85,0,0,1,12.74,26.76c5.05,18.82,3.36,39.35-5.73,56.7A81.57,81.57,0,0,1,782.14,698l11,6.24c-4.29-10.68.08-21,8-28.69,8.42-8.15,19.45-11.59,31-10.89,22.95,1.39,43.78,20,51.58,41,8.61,23.14,1.29,48.51-14.58,66.72a91.68,91.68,0,0,1-66.46,31.49c-32.26,1-63.88-12.45-88.49-32.77-3.72-3.06-9-3.63-12.63,0-3.16,3.17-3.74,9.55,0,12.63,26.5,21.87,59.16,36.89,93.87,38,31.9,1,63.34-11.42,84.93-35.14,20.28-22.29,31.18-54.24,21.28-83.7-9.7-28.86-35.48-52.27-66.14-55.83A58,58,0,0,0,789,662.39c-12.36,11.66-19.77,30-13.14,46.54,1.72,4.28,6,7.93,11,6.24a100.38,100.38,0,0,0,52.57-41.3c12.77-20.13,16.91-44.18,13.15-67.57a96.59,96.59,0,0,0-12.22-33.67c-5.87-9.93-14.68-22.66-27.95-20.21-6.46,1.19-11.23,5.54-15.87,9.88q-8,7.49-15.92,15l-33.3,31.3L675,676.64c-8.39,7.89,4.26,20.5,12.63,12.63Z"/></g></g></svg>