<svg xmlns="http://www.w3.org/2000/svg" viewBox="0 0 1693.65 1102.72"><title>Asset 26</title><g id="Layer_2" data-name="Layer 2"><g id="Layer_1-2" data-name="Layer 1"><path d="M1063.24,115.32c46.12,14,88,41.57,125.67,70.94,45.49,35.45,87,76.06,125.11,119.31,35.12,39.89,69,82.55,95.31,128.89,25.91,45.68,45,95.42,60.05,145.62,14.27,47.53,26.14,97.48,26.69,147.34q.08,7.47-.29,14.93c-.39,7.65,11.52,7.63,11.9,0,2.48-48.9-8.33-98.84-21.16-145.71-14.37-52.53-33.38-104.42-58.55-152.78-24.47-47-57.3-90-91.43-130.36-37.9-44.86-79.45-87-124.89-124.21-39.25-32.16-82.08-62.17-129.84-80.22q-7.62-2.86-15.41-5.23c-7.35-2.23-10.49,9.26-3.16,11.48Z"/><path d="M1617.21,797.42c32.26-22,55.33-51.48,66.76-89,10.71-35.14,11.34-72.88,7.61-109.17-3.81-37-11.34-74.4-23.45-109.63-11.59-33.77-28.85-67.27-57.14-90-2.87-2.31-5.82-4.53-8.86-6.61-1.94-1.33-7.23-4-7.87-5-2.13-3.34-1.43-9.65-1.53-13.35-.45-16.24-.43-32.38-2.85-48.49-6-39.76-29.93-74.82-54.41-105.78-23.26-29.42-50.76-55-78.77-79.79-28.91-25.59-58-51.28-89.48-73.67-60-42.6-134.09-69.87-208.39-66.66-73.77,3.18-140.5,39.88-187.23,96.32-29.16,35.21-55.66,72.84-83.08,109.41-28.89,38.54-58,77-88.38,114.32C743,390.57,680.62,456.81,615.69,519.94A2604.2,2604.2,0,0,1,188,856.73c-49.43,31.11-103,56-150.07,90.73C20,960.68-4.3,978.54.65,1004.05c5.9,30.39,44,48.62,71.57,52.45,39.65,5.52,78.86-5,118.39-5.32,16.77-.15,32.38,2.87,46.46,12.41,13.57,9.19,24,22.38,38.26,30.68,34.53,20.12,71.76.88,99.41-21.71,15.85-12.94,29.69-27.89,47.48-38.32,17-10,35.84-16.57,55.16-20.51a243.27,243.27,0,0,1,57.45-4.34c14.85.54,29.33,3.29,44.08,4.51,20.76,1.71,41.88.29,62.61-1.14,61.58-4.26,122.92-12.45,184.06-20.75,55.84-7.58,111.56-16.08,167.46-23.23q55.26-7.06,110.71-12.53c34-3.33,68.73-8.55,103-6.9,42.18,2,89.36,12.5,129.45-5.86,32.15-14.74,47.33-48.51,68.7-74.53,15-18.3,40.41-24.41,62.37-30.31,28.86-7.74,58.24-13.33,87.33-20.11,20.78-4.85,44.5-9.23,62.66-21.12,6.39-4.19.43-14.5-6-10.29-18.8,12.31-43.93,16.32-65.44,21.22-28.47,6.49-57.19,12-85.35,19.82-19.87,5.49-44.17,11.69-59.21,26.84-23.31,23.49-35.06,58.19-64.94,75.08-37.63,21.28-87.3,9.54-128,7.43-33.74-1.75-67.82,3.26-101.38,6.52-62.23,6.06-124.24,13.9-186.13,22.7-59.11,8.41-118.21,16.87-177.48,24-51.28,6.15-103.91,13.58-155.68,11.77-10-.35-19.64-2.05-29.54-3.2a275.81,275.81,0,0,0-56.8-.94c-36.38,3.29-72.45,14.41-101.67,36.9s-59.27,62.14-101.07,55c-16.67-2.83-28.33-14.37-40.48-25.11s-25.2-19.76-41.12-23.4c-34.26-7.85-71.17,2.57-105.67,4-19.37.77-39.1.78-57.42-6.26-14.77-5.67-30.8-15.34-38.5-29.72-12.91-24.13,16.45-43.37,33.16-55.28,24.62-17.56,51-32.69,77.26-47.57,139-78.63,268.83-173.66,389.36-278.31q98.43-85.47,188.05-180.4c62.47-66.18,120.09-136,174.94-208.59,27.75-36.74,55.1-73.78,83.07-110.35,23.59-30.84,48.54-59.31,81.58-80.36a233.87,233.87,0,0,1,99.1-35.4c38.32-4.34,76.88,1,113.78,11.62,72.23,20.78,129,67.94,184.47,116.65,27.78,24.42,55.43,49.22,79.29,77.59,24.55,29.2,50.17,64.29,57.73,102.31,3.31,16.64,3.37,33.53,3.69,50.42.17,8.69-.58,19.94,6.93,25.9,6.55,5.19,14,9,20.3,14.66a139.43,139.43,0,0,1,19.53,21.73c10.63,14.67,18.85,31.07,25.33,47.95,13.06,34.1,21.09,70.76,25.67,106.94s5.28,73.7-4.08,109.15c-9.84,37.31-31.39,67.05-63.24,88.73C1604.9,791.42,1610.85,801.74,1617.21,797.42Z"/><path d="M980.5,653.6c8.39,2.49,16.76,6.62,21.49,14.31,4.13,6.7,4.89,14.65,4.44,22.35-1.19,20.12-9.67,39.76-16.64,58.42-6.74,18-14.94,37.25-15.16,56.8a48.69,48.69,0,0,0,9.68,29.16c9.77,13.28,25.16,18,41.14,16.92,36-2.35,68.4-24.73,95.57-46.67,5-4-2.11-11.07-7.08-7.07-23.94,19.34-52.06,38.85-83.31,43.22-16.36,2.29-32.45-1.12-40.93-16.53a39.9,39.9,0,0,1-4.69-25c2.21-19.19,10.57-37.72,17.22-55.67,6.72-18.12,14.17-37.38,14.31-57,.07-9.05-1.84-18.42-7.18-25.88-6.34-8.85-16-14-26.2-17-6.18-1.83-8.82,7.81-2.66,9.65Z"/><path d="M443.36,760.26c-5.43,12-8.44,25.52-5.05,38.58,3.2,12.31,12.19,22.09,23.6,27.44,15,7,32.06,8,48,3.84,16.77-4.35,31.89-13.4,47.13-21.31,5.72-3,.66-11.6-5-8.64-25.56,13.28-52.74,29.91-82.3,18.63-10-3.8-18.41-11.08-21.46-21.53-3.11-10.62-.72-22.08,3.74-32,2.62-5.82-6-10.91-8.64-5Z"/><path d="M947.08,304.41c-6.33,19.31-4.92,40,5.4,57.69,9.73,16.67,25.77,29.26,43.23,37.07a115.08,115.08,0,0,0,60.83,9.61c19.68-2.4,51.16-10.73,62.86,11.78,8.55,16.44,2.47,40,23.1,48.79,5.85,2.48,11-6.13,5-8.64-15.89-6.74-12.39-28.43-18-42-8.44-20.22-31.52-24.88-51.22-22.87-11.34,1.16-22.57,3.74-34,3.85a103.68,103.68,0,0,1-28.87-4c-18.27-5.1-35.61-14.92-47.89-29.56-14.14-16.83-17.56-38.4-10.77-59.11,2-6.13-7.65-8.75-9.65-2.65Z"/></g></g></svg>