<svg xmlns="http://www.w3.org/2000/svg" viewBox="0 0 1694.24 1103.32"><title>Asset 27</title><g id="Layer_2" data-name="Layer 2"><g id="Layer_1-2" data-name="Layer 1"><path d="M1063.45,115.9c46.07,14,87.88,41.53,125.54,70.87,45.5,35.45,87,76.06,125.11,119.31,35.11,39.87,69,82.51,95.27,128.83,25.9,45.65,45,95.37,60,145.55,14.26,47.5,26.13,97.42,26.68,147.26q.08,7.46-.29,14.92c-.41,8,12.09,8,12.5,0,2.47-48.91-8.35-98.88-21.18-145.79-14.37-52.55-33.4-104.46-58.57-152.85-24.49-47.05-57.34-90-91.48-130.41-37.91-44.86-79.45-87-124.9-124.21-39.29-32.2-82.15-62.23-130-80.3q-7.61-2.86-15.4-5.23c-7.72-2.34-11,9.72-3.33,12.05Z"/><path d="M1617.66,798c32.32-22,55.44-51.58,66.89-89.15,10.72-35.16,11.35-72.93,7.62-109.24-3.81-37.06-11.34-74.45-23.45-109.72-11.62-33.81-28.9-67.36-57.22-90.16-2.89-2.33-5.86-4.57-8.92-6.66-1.85-1.27-7.47-4.4-7.77-4.89-2.06-3.37-1.39-9.49-1.49-13.2-.45-16.27-.43-32.43-2.86-48.57-6-39.82-30-74.91-54.48-105.92-23.26-29.42-50.76-55-78.77-79.78-28.93-25.61-58-51.31-89.55-73.71-60-42.63-134.19-69.92-208.53-66.71-73.85,3.18-140.66,39.9-187.45,96.41C942.51,131.9,916,169.55,888.56,206.13c-28.88,38.52-57.93,76.93-88.33,114.27C743,390.65,680.7,456.9,615.78,520A2604,2604,0,0,1,188.1,856.77C138.67,887.88,85.15,912.76,38,947.5,20,960.81-4.33,978.75.66,1004.42c5.93,30.5,44.11,48.8,71.78,52.67,39.67,5.53,78.91-5,118.46-5.32,16.73-.15,32.28,2.86,46.32,12.37,13.57,9.19,24,22.38,38.25,30.68,34.66,20.2,72,.92,99.78-21.75,15.82-12.93,29.65-27.86,47.42-38.28,17-10,35.78-16.55,55.08-20.48a243.2,243.2,0,0,1,57.38-4.32c14.85.53,29.32,3.29,44.07,4.51,20.76,1.71,41.88.29,62.61-1.15,61.61-4.26,123-12.45,184.15-20.76,55.81-7.57,111.5-16.07,167.37-23.21q55.27-7.07,110.71-12.53c34-3.34,68.74-8.56,103-6.9,42.24,2,89.45,12.49,129.59-5.91,32.19-14.75,47.38-48.53,68.77-74.57,15-18.26,40.32-24.35,62.24-30.23,28.85-7.75,58.23-13.34,87.32-20.12,20.81-4.85,44.55-9.25,62.74-21.15,6.7-4.39.44-15.22-6.31-10.79-18.78,12.29-43.88,16.29-65.37,21.18-28.47,6.49-57.19,12-85.35,19.82-19.93,5.51-44.27,11.73-59.34,26.92-23.29,23.46-35,58.16-64.88,75-18.28,10.34-40.39,11.93-61,11.72-22.38-.22-44.61-3.17-66.94-4.33-33.74-1.75-67.81,3.26-101.37,6.52-62.26,6.06-124.29,13.91-186.22,22.71-59.07,8.4-118.15,16.86-177.4,24-51.27,6.15-103.9,13.58-155.68,11.77-10-.35-19.63-2.05-29.53-3.2a275.83,275.83,0,0,0-56.8-.94c-36.44,3.29-72.56,14.42-101.82,36.94s-59.16,62.07-100.85,55c-16.62-2.82-28.23-14.33-40.34-25s-25.28-19.81-41.25-23.47c-34.3-7.86-71.22,2.56-105.76,3.94-19.34.77-39,.78-57.34-6.25-14.69-5.64-30.66-15.27-38.32-29.58C3,986,32.33,966.81,48.88,955c24.63-17.56,51-32.69,77.26-47.57C265.16,828.8,395,733.75,515.56,629.08Q614,543.63,703.62,448.69c62.48-66.2,120.12-136.06,175-208.66,27.76-36.73,55.1-73.77,83.07-110.35,23.56-30.79,48.49-59.22,81.47-80.25a233.67,233.67,0,0,1,99-35.35c38.29-4.34,76.82,1,113.7,11.61,72.17,20.76,128.94,67.89,184.33,116.57,27.78,24.41,55.44,49.22,79.29,77.58C1544,249,1569.53,284.06,1577.08,322c3.3,16.61,3.36,33.48,3.68,50.34.17,8.82-.56,20.13,7.07,26.15,6.55,5.17,14,9,20.25,14.62a138.13,138.13,0,0,1,19.47,21.67c10.63,14.65,18.84,31,25.31,47.88,13.05,34.07,21.08,70.71,25.66,106.85s5.28,73.66-4.07,109.08c-9.82,37.23-31.32,66.92-63.1,88.56C1604.74,791.68,1611,802.51,1617.66,798Z"/><path d="M980.47,655.1c8.1,2.41,16.26,6.46,20.74,13.74,4,6.45,4.72,14,4.26,21.71-1.18,20-9.67,39.56-16.59,58.1-6.78,18.13-15,37.46-15.21,57.13a49.87,49.87,0,0,0,9.86,29.78c10,13.66,25.76,18.63,42.22,17.55,36.38-2.38,69-24.87,96.44-47,6.26-5.06-2.63-13.85-8.83-8.84-23.74,19.17-51.75,38.64-82.77,42.89-15.83,2.18-31.31-1-39.51-16-4.51-8.19-5.58-15.29-4.52-24.4,2.22-19,10.56-37.49,17.17-55.33,6.77-18.24,14.22-37.59,14.36-57.32.07-9.25-1.91-18.86-7.36-26.51-6.51-9.13-16.37-14.43-26.94-17.58-7.73-2.29-11,9.77-3.32,12.06Z"/><path d="M442.58,759.93c-5.57,12.35-8.66,26.13-5.18,39.54,3.28,12.61,12.49,22.69,24.17,28.18,15.33,7.21,32.69,8.2,49,4,16.87-4.37,32.09-13.47,47.43-21.44,7.14-3.71.83-14.5-6.31-10.79-25.25,13.12-52.12,29.66-81.34,18.5-9.53-3.64-17.66-10.64-20.58-20.65-3-10.29-.7-21.43,3.61-31,3.28-7.28-7.49-13.64-10.79-6.31Z"/><path d="M946.17,304.37c-6.43,19.62-4.95,40.7,5.53,58.66,9.83,16.84,26,29.62,43.68,37.51,19.28,8.63,40.44,12.34,61.46,9.78,19-2.31,50.48-10.81,61.78,11.17,4.21,8.2,4.28,18,6.43,26.83,2.38,9.75,7.57,18.35,17.11,22.4,3.13,1.33,6.66.92,8.55-2.24,1.57-2.61.86-7.23-2.24-8.55-15.38-6.52-12-28.07-17.48-41.25-8.62-20.78-32.1-25.87-52.42-23.79-11.35,1.15-22.57,3.73-34,3.85a102.44,102.44,0,0,1-28.54-3.92c-18.09-5-35.17-14.75-47.34-29.23-13.87-16.49-17.09-37.65-10.45-57.9,2.51-7.66-9.56-10.94-12.06-3.32Z"/></g></g></svg>