<svg xmlns="http://www.w3.org/2000/svg" viewBox="0 0 1696.62 1105.69"><title>Asset 26</title><g id="Layer_2" data-name="Layer 2"><g id="Layer_1-2" data-name="Layer 1"><path d="M1064.32,118.25c45.87,13.89,87.51,41.35,125,70.55,45.51,35.43,87,76.07,125.11,119.31,35,39.8,68.87,82.36,95.09,128.59,25.84,45.57,44.87,95.18,59.9,145.27,14.23,47.4,26.08,97.21,26.63,146.94q.07,7.47-.29,14.92c-.48,9.58,14.4,9.55,14.88,0,2.48-49-8.36-99.1-21.21-146.1-14.41-52.65-33.48-104.66-58.7-153.14-24.53-47.14-57.46-90.17-91.67-130.65-37.9-44.86-79.45-87-124.89-124.21-39.46-32.34-82.48-62.46-130.49-80.6q-7.62-2.88-15.41-5.24c-9.19-2.78-13.11,11.58-4,14.36Z"/><path d="M1619.44,800.19c32.59-22.19,55.9-52,67.44-89.86,10.75-35.26,11.41-73.15,7.67-109.56-3.82-37.16-11.35-74.67-23.5-110-11.68-34-29-67.75-57.52-90.69-3-2.4-6-4.7-9.17-6.85-2-1.35-4-2.73-6.08-3.9-4.7-2.62-1.69-1.27-1.26-.56-1.48-2.42-1.23-9.11-1.32-12.6-.46-16.38-.45-32.64-2.91-48.89-6-40-30.15-75.28-54.79-106.44-23.25-29.42-50.75-55-78.77-79.78-29-25.68-58.16-51.44-89.78-73.9C1309.28,24.39,1234.85-3,1160.31.26,1086.17,3.46,1019,40.27,972,97c-29.24,35.31-55.82,73-83.31,109.7-28.82,38.44-57.82,76.76-88.15,114C743.39,391,681.05,457.25,616.12,520.38A2602.52,2602.52,0,0,1,188.68,856.93c-49.42,31.11-102.95,56-150.06,90.74C20.09,961.33-4.46,979.61.7,1005.93c6.06,30.91,44.5,49.54,72.6,53.5,39.79,5.59,79.13-4.91,118.79-5.27,16.53-.15,31.83,2.8,45.71,12.2,13.57,9.19,24,22.38,38.26,30.68,35.17,20.5,73,1.09,101.21-21.93,15.75-12.87,29.51-27.73,47.18-38.1,16.94-9.93,35.6-16.44,54.8-20.36a242.16,242.16,0,0,1,57.06-4.28c14.85.54,29.33,3.29,44.08,4.51,20.76,1.71,41.88.29,62.61-1.14,61.72-4.28,123.18-12.49,184.46-20.81,55.71-7.56,111.29-16,167.06-23.17q55.26-7.07,110.71-12.53c34-3.34,68.73-8.55,103-6.9,42.5,2.06,89.83,12.47,130.2-6.07,32.31-14.83,47.52-48.61,69-74.76,14.87-18.1,40-24.09,61.72-29.92,28.86-7.75,58.24-13.34,87.33-20.12,20.9-4.87,44.75-9.31,63-21.27,8-5.23.54-18.12-7.51-12.85-18.69,12.24-43.7,16.19-65.08,21.07-28.47,6.49-57.2,12-85.35,19.81-20.15,5.57-44.64,11.89-59.87,27.23-23.19,23.37-34.92,58-64.64,74.84-18.09,10.23-40,11.77-60.36,11.56-22.37-.22-44.6-3.17-66.93-4.33-33.74-1.75-67.82,3.26-101.38,6.52C1046,950.11,983.82,958,921.79,966.8c-59,8.38-117.94,16.82-177.08,23.92-51.28,6.14-103.91,13.58-155.68,11.76-10.41-.36-19.08-2-29.54-3.2a275.81,275.81,0,0,0-56.8-.94c-36.65,3.31-73,14.47-102.42,37.1-28.87,22.19-58.65,61.68-99.93,54.89-16.4-2.7-27.89-14.18-39.81-24.73-12.25-10.83-25.61-20.08-41.78-23.78-34.43-7.88-71.41,2.52-106.07,3.9-19.24.77-38.82.79-57-6.2-14.4-5.54-30.11-15-37.6-29-12.37-23.13,16.69-41.89,32.62-53.25,24.62-17.56,51-32.69,77.26-47.56C267,831,397,735.85,517.59,631.12Q616,545.65,705.65,450.72c62.55-66.27,120.24-136.21,175.16-208.89,27.76-36.74,55.11-73.78,83.08-110.35,23.42-30.63,48.24-58.92,81-79.83a232.4,232.4,0,0,1,98.35-35.19c38.2-4.33,76.6,1,113.38,11.57,72,20.7,128.58,67.72,183.82,116.26,27.78,24.42,55.43,49.22,79.28,77.59,24.41,29,49.84,63.88,57.35,101.66,3.28,16.5,3.32,33.27,3.65,50,.17,9.22-.5,21,7.65,27.18,6.62,5,13.78,8.84,20,14.43a136.75,136.75,0,0,1,19.29,21.43c10.56,14.56,18.76,30.83,25.18,47.6,13,34,21,70.5,25.63,106.53s5.29,73.45-4,108.76c-9.74,36.92-31,66.38-62.56,87.85C1604.06,792.7,1611.5,805.6,1619.44,800.19Z"/></g></g></svg>