<svg xmlns="http://www.w3.org/2000/svg" viewBox="0 0 1163.9 1227.45"><title>Asset 20</title><g id="Layer_2" data-name="Layer 2"><g id="Layer_1-2" data-name="Layer 1"><path d="M705.86,410.62c0,.59-.36,3.18,0,1.58h5.9c.27,1.66.09-1.61.1-2.2,0-2.62,0-5.25.12-7.87.31-7.17.84-14.33,1.29-21.5,1-16.83,1.15-33.56,2.79-50.39,2.82-28.87,6.88-57.86,5.1-86.93a187.91,187.91,0,0,0-15.94-65.93c-17-38-46.06-70.18-78.53-95.77A394.47,394.47,0,0,0,510.09,18.36C432.82-8,346.16-6.32,270.8,25.67a288.22,288.22,0,0,0-98.58,68.84c-32.15,34.66-53.17,75.94-69.11,120.12C88.91,254,78.87,295.83,81,338c1.7,33.83,11.13,66.25,21,98.44,2.64,8.62,5.5,17,8.78,25.37,4.51,11.56,21.39,7.32,18.8-5.18-3.52-17-9.27-33.32-14.11-50a381.24,381.24,0,0,1-10.9-46.44A211.48,211.48,0,0,1,102.24,338a230.94,230.94,0,0,1,.08-25.51c1.12-19.37,4.74-38.19,9.93-57.36,11.94-44,29.46-87.66,56.68-124.57a266.44,266.44,0,0,1,87.23-75.43C322.94,18.8,404.35,10.77,477.85,28.68A373.07,373.07,0,0,1,593.51,79.33c33.55,22,64.5,50,86,84.1a174.62,174.62,0,0,1,22.39,51.64c6.54,26.88,5.65,54.95,4,82.36-1.32,21.6-3.11,43.13-2.69,64.79.27,14.26,1.66,28.38,2.27,42.61.12,2.9-.17,6.13.44,9s5.32,2.95,5.9,0a14.88,14.88,0,0,0,.07-3.2c-.08-3.86-5.91-3.87-6,0Z"/><path d="M391.39,439.82c-11.31,18.78-18.91,41.1-19.22,63.17-.28,19.2,7.33,39.81,27.69,45.13,14.06,3.68,29.68,0,42.65-5.69,9.66-4.25,2.79-20.34-7.18-17-5.77,1.9-11.44,4-17.42,5.1a32.52,32.52,0,0,1-5.9.63q-1.42,0-2.85,0c-.62,0-3.64-.33-2-.08a32.89,32.89,0,0,1-5.53-1.38c-1.64-.56.87.5-.65-.28-.88-.45-1.72-.94-2.58-1.44a14.11,14.11,0,0,1-1.2-.82c.09.06,1.15.94.39.28s-1.26-1.12-1.84-1.72-1-1.06-1.44-1.62c1.19,1.44-.47-.75-.75-1.2-2.26-3.62-2.42-4.22-3.55-8.69a40.15,40.15,0,0,1-1.4-10.71,95.33,95.33,0,0,1,3.06-26.34,144.24,144.24,0,0,1,11.21-30.57c3.82-7.61-7-14.12-11.5-6.72Z"/><path d="M712.68,419.59c6.25-5,13.54-10.08,21.42-12a20,20,0,0,1,7.22-.46c2.33.16-1.54-.41.68.12.69.17,1.37.36,2.06.54.28.06,2.46.91.65.14.64.27,1.28.6,1.89.93,4.27,2.32,8,6.69,10.76,11,4.08,6.45,5.76,10.78,7.95,17.92a126.2,126.2,0,0,1,5.62,44.87c-.09,1.87-.21,3.73-.38,5.58-.08.9-.18,1.8-.28,2.7-.33,2.94.35-2-.11.85a91.72,91.72,0,0,1-2.36,10.48c-3.74,13.14-8.14,26.08-13,38.85-19.27,51-44.29,100.11-60.9,152.12-10.82,33.91-18.25,73-8,108,5.29,18.1,15.77,33.76,31,44.91,17.67,12.93,40.72,18.38,62.35,18.08,46-.62,88.32-25.67,133.56-25.34a110.15,110.15,0,0,1,33.36,5.52A140.32,140.32,0,0,1,969,853.52a194.91,194.91,0,0,1,43.16,29,256.4,256.4,0,0,1,20,19.72q4.39,4.83,8.55,9.85,2.1,2.52,4.14,5.1c.62.78,1.24,1.56,1.85,2.35-1.1-1.42,1.53,2,1.77,2.35A374.1,374.1,0,0,1,1079,970.39c18,33.86,30.83,68.19,41.2,106q7.21,26.33,12.11,53.23,2.22,12.29,3.93,24.66c-.4-2.87.08.59.13,1l.39,3.09q.38,3,.72,6.1.66,5.92,1.18,11.88.93,10.67,1.35,21.38a12.18,12.18,0,0,0,12,12c6.28,0,12.2-5.47,12-12-2.79-73.2-21.45-147.2-51.73-213.77-31.6-69.5-82.36-136.89-157.44-161.83-23.87-7.93-48.37-8.45-73-4.16-23.06,4-45.16,12-67.87,17.46-21.4,5.16-42.74,7.48-64,.77-2.46-.78-4.93-1.63-7.31-2.64,1.46.62-.41-.22-.58-.3-1.1-.51-2.19-1-3.27-1.6q-3.12-1.62-6.08-3.51c-.95-.62-1.89-1.26-2.82-1.91-1.12-.83-1.21-.88-.27-.14-.57-.46-1.14-.92-1.7-1.39a66.73,66.73,0,0,1-8.34-8.3c-.18-.22-2.26-3-.74-.89-.62-.85-1.22-1.7-1.8-2.56-1.35-2-2.59-4.11-3.73-6.25-.81-1.54-1.55-3.1-2.27-4.69,1.09,2.4-.3-.76-.41-1.05-.38-1-.73-2-1.07-3A95.55,95.55,0,0,1,706,784.52c-.16-.89-.3-1.78-.45-2.67-.1-.57-.39-3-.12-.68-.26-2.2-.48-4.4-.63-6.6-.34-4.87-.41-9.76-.27-14.63.12-4.2.41-8.4.82-12.59.12-1.14.24-2.29.38-3.44,0-.11.5-3.88.17-1.52.34-2.49.74-5,1.17-7.44,1.52-8.82,3.54-17.55,5.93-26.18,6.36-23,15.4-45.21,24.35-67.28,11.18-27.56,23-54.87,33.16-82.83,4.92-13.53,9.58-27.19,13.67-41,2.72-9.17,5-18.09,5.93-27.63a143.62,143.62,0,0,0-4.23-48.67c-3.69-14.29-9.77-30.4-21-40.5s-25.94-12.54-39.8-5.77c-8,3.92-14.41,10.06-20,16.88-4.45,5.42,2.2,11.93,7.63,7.62Z"/><path d="M572.92,419.85a23,23,0,0,0-9.52,2.6,31.8,31.8,0,0,0-14.46,22.38c-.35,9,3.72,17.93,11.3,22.91A24.67,24.67,0,0,0,574,471.67a23.63,23.63,0,0,0,11.9-2.61c7.28-3.3,13.16-9.55,14.73-17.76a24.66,24.66,0,0,0,.36-2.93c0-.21.08-.41.1-.63C603.49,430.23,588.45,417.89,572.92,419.85Z"/><path d="M253,459.81a21.18,21.18,0,0,0-19.19,2.77c-9.73,1.85-13.9,14.51-13,23.44a26,26,0,0,0,.51,3.28c.55,6.5,3.66,12.44,10.06,15.92a21.14,21.14,0,0,0,11.29,4C268.56,510.74,278.71,468.18,253,459.81Z"/><path d="M569.43,562.16c-12.87,0-12.89,20,0,20S582.32,562.16,569.43,562.16Z"/><path d="M632,515.25c-12.87,0-12.89,20,0,20S644.87,515.25,632,515.25Z"/><path d="M671.07,554.34c-12.87,0-12.89,20,0,20S684,554.34,671.07,554.34Z"/><path d="M224.64,592.46a10.36,10.36,0,0,0-7.07-2.93h-3.91a10.29,10.29,0,0,0-7.07,2.93,10,10,0,0,0,0,14.14,10.38,10.38,0,0,0,7.07,2.93h3.91a10.33,10.33,0,0,0,7.07-2.93,10,10,0,0,0,0-14.14Z"/><path d="M260.58,554.34c-12.87,0-12.9,20,0,20S273.47,554.34,260.58,554.34Z"/><path d="M272.3,613c-12.87,0-12.89,20,0,20S285.19,613,272.3,613Z"/><path d="M437.4,635.62c-7.15,6.49-21.2,6-27.26-2.18-3.21-4.33-8.65-6.52-13.68-3.59-4.27,2.5-6.82,9.32-3.59,13.69,13.84,18.63,41.23,22.06,58.67,6.22C461.09,641.08,446.91,627,437.4,635.62Z"/><path d="M118.61,463.92c-8.89-9.08-21.71-22-35.32-13.68-11.52,7.05-14.68,22.47-16.12,34.81a136.76,136.76,0,0,0,2.06,43.37C73.52,549,87,566.63,100.64,582.06c16.08,18.25,35.43,33.93,48.94,54.31,12.69,19.14,20.91,40.85,33.41,60.11,14.68,22.65,33.88,42.77,56.45,57.66,8.42,5.56,17.48,9.79,26.65,13.93,7.14,3.22,15.21,7.14,20.11,11.7,7.07,6.56,11.27,15.46,14.39,24.82a137.81,137.81,0,0,1,4.12,14.82,59.3,59.3,0,0,1,1.62,11.3c.1,1.89.13,3.79.07,5.69,0,.9-.1,1.8-.15,2.69,0,.33-.37,3.2,0,.83a45.74,45.74,0,0,1-2.37,9.22c-.87,2.37.94-1.81-.19.41-.34.65-.65,1.31-1,2-.7,1.26-1.49,2.46-2.3,3.65-.29.41-1.16,1.39.23-.29-.45.55-.91,1.1-1.39,1.62-1.12,1.25-2.35,2.36-3.58,3.49-.34.31-2.28,1.79-.27.28-.58.44-1.18.87-1.78,1.28-1.13.77-2.29,1.49-3.47,2.17s-2.45,1.35-3.71,2c-.7.34-1.41.66-2.12,1-1.44.65,1.22-.41-1.33.53a131.11,131.11,0,0,1-19.78,5.48c-14.35,2.84-28.06,3.84-44.08,5.31-30.9,2.84-61.49,6.27-87.32,25-28.62,20.81-48.9,51.22-64.67,82.44C34,1051,16.22,1124,3.16,1195.85c-.56,3.07-1.14,6.14-1.62,9.23-.24,1.59-.46,3.19-.69,4.78-.14,1-1.26,8.19-.66,4.58-.92,5.49,1.45,11.1,7.21,12.69,4.94,1.35,11.75-1.68,12.68-7.21,11.38-67.56,26.8-136.07,53.44-199.38,12.9-30.66,30.19-63.13,53.46-86.77q3.86-3.9,8-7.54c1.47-1.29,3-2.54,4.48-3.77.08-.07,2.6-2,1-.8.77-.58,1.54-1.15,2.32-1.71a109.4,109.4,0,0,1,19.47-11.26c2.79-1.24-1.83.69,1-.41.86-.34,1.72-.67,2.59-1,1.44-.53,2.9-1,4.37-1.47,3.5-1.08,7.05-2,10.62-2.72,3.41-.74,6.84-1.36,10.28-1.91,1.54-.25,3.08-.48,4.63-.7.2,0,3.3-.45,1.09-.16l3.81-.47c29.16-3.52,60.64-3,88.29-14,12.42-4.93,24.06-12.49,30.64-24.5,7.73-14.12,7.34-30.65,4.14-46-4.26-20.42-12.63-41.25-29.87-53.94-6.77-5-14.57-8.18-22.2-11.57a159.29,159.29,0,0,1-26.72-14.71c-21.92-15.28-40-36.34-53-59.58-10.46-18.67-19-38.59-32-55.71-25-32.84-68-58.4-75-101.52-.42-2.58-.62-4.24-.94-8s-.5-7.25-.58-10.88,0-7.28.18-10.91c.09-1.48.21-2.95.35-4.42a37.63,37.63,0,0,1,.63-4.56,81.17,81.17,0,0,1,1.93-8.44,19,19,0,0,1,2.67-6.25,7.84,7.84,0,0,1,2.89-3c1.66-1.11,1.8-1.32,4-1a30.64,30.64,0,0,1,6.9,1.42c4,1.36,7.17,4.21,10.3,7,3.63,3.22,8.82-1.84,5.37-5.37Z"/><path d="M315.1,839.14c24.31,57.93,87.63,91.09,147.24,98.86,61.07,8,125.62-9.21,173.1-48.81a187.09,187.09,0,0,0,58.21-87.29c4.37-13.83-17.36-19.77-21.7-6a155.46,155.46,0,0,1-18.37,39.34q-2.61,4.07-5.43,8c-.44.6-3.11,4.17-2.09,2.85-1.3,1.68-2.65,3.33-4,4.95a177,177,0,0,1-14.53,15.34c-19.38,18.19-45,32.75-70.14,41.14q-10.11,3.38-20.49,5.78-4.93,1.14-9.92,2.07-2.62.48-5.26.91l-2.63.41c-.08,0-3.46.48-1.38.21a240.31,240.31,0,0,1-43.15,1.79,192.3,192.3,0,0,1-40.88-6.16,196.69,196.69,0,0,1-38.41-13.89A181.72,181.72,0,0,1,356.4,873c-12.64-11-23.32-23.85-33.5-37.1-2.61-3.39-9.86-1.62-7.8,3.29Z"/><path d="M121.08,952.82c53.23,32.69,112.65,55.12,172.53,72.24,63.57,18.17,128.79,30.25,194.46,37.67a1384.09,1384.09,0,0,0,188.87,8.5c60.74-1.47,121.43-9.89,179.29-28.89,57-18.72,111.74-47.59,154.16-90.66,5.13-5.21,10.09-10.59,14.72-16.24,4-4.87,3.06-13-3.88-14.7-4.3-1.07-8.52-1.51-12.74.08-3.18,1.2-5.83,3.3-8.75,5-7.33,4.23-2.48,16.26,5.82,13.79,3.92-1.17,6.92-3.07,11-1.89L1012.67,923c-38.85,43.82-88.75,74.81-143.46,95.11-55.36,20.54-114.23,31.08-173.12,33.81-61.45,2.84-123.26.82-184.49-4.87-64-5.94-127.69-16.13-190-31.73C261.35,1000.24,202.1,980,146.27,952.73c-6.52-3.19-13.06-6.32-19.52-9.62s-11.88,5.9-5.67,9.71Z"/><path d="M70.16,1070.27c64.33,27.27,132,46,200.68,58.45,67.38,12.23,135.65,18.75,204,21.78,35.06,1.56,70.15,2.27,105.24,2.51,35.62.24,71.34.61,106.93-.94,69.76-3,139-14.49,205.33-36.54,20.9-7,41.21-15.23,61.61-23.49,10-4.06,20.11-8.11,30.22-12,8.18-3.15,16.73-5.66,24.69-9.28,2.1-1-1.24.44.17-.07l1.55-.59c1.35-.49,2.94-.72,4.11-1.57l-4.26,1.15c1.59,0-2.17-.51-1.32-.21,10.22,3.72,14.63-12.58,4.48-16.27a8.62,8.62,0,0,0-3.16-.39l4.26,1.15c-6.23-3.19-15,.08-21.14,2.25-9.18,3.25-18.25,6.81-27.29,10.4-16.89,6.69-33.61,13.83-50.57,20.32-64.21,24.53-131.93,39.06-200.41,44.43-35.46,2.77-71,2.9-106.55,3-35,.07-70.1-.22-105.13-1.26-67.83-2-135.76-6.63-202.87-16.87-68.21-10.4-134.67-27.17-200.35-48.11-8.61-2.75-17.21-5.53-25.76-8.46-6.14-2.1-10.58,8-4.48,10.63Z"/></g></g></svg>