<svg xmlns="http://www.w3.org/2000/svg" viewBox="0 0 412.39 198.69"><title>Asset 19</title><g id="Layer_2" data-name="Layer 2"><g id="Layer_1-2" data-name="Layer 1"><path d="M358.82,45.27c1.87-10,11.34-19.16,22.19-16,10.69,3.08,12.42,14.39,9.53,23.53-3.57,11.29-10.35,21.37-16.2,31.55-5.41,9.41-11.16,19.14-12.3,30.13-.3,2.87,2.37,6.16,5.13,6.74,5.82,1.24,10,.29,15.3-2.18,3.37-1.58,2.57-6.16,0-7.93-3.78-2.6-7.25-2.6-11.59-3.36l5.13,6.73c-.09-9.38,4.9-18.68,8.92-26.88,4.86-9.91,10.4-19.76,13.75-30.31,2.85-8.94,3.29-18.1-2.31-26.07-5.36-7.63-14.6-11.82-23.83-9.48-10.67,2.71-16.86,12.49-18.05,23-.28,2.46,3.87,3,4.33.59Z"/><path d="M380.15,151.86l3.91-.05a5.48,5.48,0,1,0,0-11l-3.91,0a5.53,5.53,0,1,0,0,11.06Z"/><path d="M16.57,191.61c102.11-1.38,204.19,12.06,306.26,5,29.14-2,58.06-5.56,86-14.14,5.21-1.6,4.58-10.51-1.34-10-25.3,2.4-50.58,5.38-75.94,7.21-25.54,1.84-51.16,2.43-76.76,2.42-50.87,0-101.68-3-152.52-4-28.6-.57-57.16-.45-85.73,1.06-7.9.41-8,12.48,0,12.37Z"/><path d="M16.67,21.6C8.93,48.21,8.33,76.32.16,102.83l14,3.86c2.37-12,5.36-23.92,8.71-35.69,4.31-15.16,9.05-30.78,16.91-44.53a70.89,70.89,0,0,1,4.3-6.59,39.38,39.38,0,0,1,2.85-3.07c.19-.18,1.84-1.5.41-.44a20.92,20.92,0,0,1,1.95-1.26c1.58-.92-1.08.5-.07,0a4.17,4.17,0,0,1,1.25-.36c1.39-.21-1,.83,0,0s-1.33.09,0,0c.09,0,2.56.52.47,0a4.8,4.8,0,0,1,1.52.83C50.62,14,54.23,18,52.91,16a11,11,0,0,1,.89,1.52c.84,1.83-.44-1.57.18.41a27.92,27.92,0,0,1,1,3.81c-.29-1.66.1,1.62.12,2.16a49,49,0,0,1-.17,5.28,65,65,0,0,1-4.38,16c-.65,1.36-1.33,2.7-2.09,4-.36.62-.74,1.23-1.13,1.83-.2.29-2,2.6-.74,1.12-.79,1-1.66,1.82-2.54,2.7-1.34,1.35,1.42-.79-.14.13-.6.36-1.17.72-1.81,1,2.49-1.2.28-.33.1-.2,2.76-2,.18,1.09-.17-.14l1.23.14a5.6,5.6,0,0,1-.7-.2c-.57-.2-.31-.09.79.34-.32-.17-.63-.35-.92-.54.16.75.79.9-.18-.23-1.36-1.58-.14.12-1-1a37,37,0,0,1-3-5.47L27.08,59.84A74.28,74.28,0,0,1,49.81,84.29,68.66,68.66,0,0,1,56,99.15c1.71,5.86,2.06,11.66,5,17.1,2,3.71,8.15,3.92,10.12,0,6.19-12.36-.38-29.3-6.69-40.53-7-12.48-17.25-22.19-29.11-30C27.9,40.76,21,50.11,24.14,56.9c3.37,7.23,9.18,14.62,17.84,15,7.12.27,12.88-4.34,17-9.7,9.16-12,13.73-29.68,10.94-44.55-3-16.09-20-23.38-32.65-12.3-5.75,5-9.72,12.23-13,19a216.63,216.63,0,0,0-11,27.93A425.39,425.39,0,0,0,.16,102.83c-1.76,9.09,11.26,12.9,14,3.86,8.1-26.61,8.11-54.75,15.33-81.55,2.23-8.29-10.44-11.76-12.83-3.54Z"/><path d="M141.86,40.37c-17-9.75-37.35-5.54-49.69,9.55-2.85,3.49-2.45,7.89,1.35,10.5,12.31,8.46,25.17,12.44,40.1,10l-5.69-13.5A50.16,50.16,0,0,0,101.82,92c-.48,2.49-.21,5.69,2,7.43,7.34,5.86,15.94,9.91,25.56,9.4,8.89-.47,19.32-4.1,24.22-11.93,3-4.84-1.95-10.29-7-9.16-5.71,1.27-10.49,4.9-16.44,5.48a21.6,21.6,0,0,1-15.5-4.59l2,7.43c2.1-11.67,8.36-20.74,18.83-26.41,7.79-4.22,2.14-14.91-5.69-13.51-11,2-19.94-2.38-29.43-7.25l2.4,9.14c8-12.9,22.76-17.33,36.91-12.25,3.2,1.14,5.13-3.76,2.28-5.4Z"/><path d="M182,42.92c-.92,25.75,2.58,51.44,2.78,77.18.07,8.26,12.84,8.28,12.84,0,0-23.38-2.3-48.24,6-70.62,1.56-4.18,4.44-8.63,6.84-10.36a3.82,3.82,0,0,1,1.6-.88,7.94,7.94,0,0,1,2.39-.51A13.6,13.6,0,0,1,221,39.19c12.69,5.53,10.47,22.51,7.44,33.37a66.21,66.21,0,0,1-11.05,22.85,28.48,28.48,0,0,1-6.1,6c-.38.24-.76.46-1.15.68-1.41.81-.42.26-1.24.59s-1.72.54-2.67,1c-.2.1-2,1-.84.61-4.27,1.62-5.27,7.07-1.26,9.68,6.88,4.5,14.5-.68,19.43-5.71,6.16-6.31,10.44-14.3,13.74-22.4,6.25-15.36,10.59-37.15-1.3-51-9.34-10.91-27.35-13.33-37.09-1.87s-11.71,28.81-13,43.27c-1.3,14.61-1.16,29.24-1.17,43.89h12.84c-.2-25.8-3.78-51.43-5-77.18-.33-6.8-10.35-6.84-10.59,0Z"/><path d="M285,62.3c-12.21.1-21.24,8.06-25.39,19.21-3.72,10-3.28,23.75,6.14,30.5,9.69,7,23.18,3.34,30.51-5.22,7.82-9.12,11.33-21.82,11.61-33.66.14-6-.77-12.62-4.08-17.76a17.3,17.3,0,0,0-6.23-5.85c-4.24-2.3-7.35-1.62-11.14.88a5,5,0,0,0,0,8.5c-2.09-1.23,1.67,1.74,2,2a21.83,21.83,0,0,0,2.24,1,3.27,3.27,0,0,1,1.2,1.22,17.17,17.17,0,0,1,2.32,7.84A40.2,40.2,0,0,1,289,94c-3.16,5.43-8.49,9.91-14.05,7.69A7,7,0,0,1,271,97.38a17.85,17.85,0,0,1-.52-9.33c1.29-7.27,6.44-16.57,14.56-17.6,5-.63,5.41-8.2,0-8.15Z"/></g></g></svg>