<svg xmlns="http://www.w3.org/2000/svg" viewBox="0 0 1705.18 225.38"><title>Asset 17</title><g id="Layer_2" data-name="Layer 2"><g id="Layer_1-2" data-name="Layer 1"><path d="M850.07,72.12c-24,.74-48.39,14.28-49.9,40.49-.53,9.07,2.61,18.76,10.18,24.22,8.56,6.17,19.52,4.2,28-1.05,17.49-10.81,28.89-30.92,38-48.63l-15.71-6.62a141.23,141.23,0,0,0-10,45.7,128,128,0,0,0,1.22,24.82c1.07,7.38,2.4,18.1,10,21.54,3.4,1.54,8.6,1.32,10.39-2.73,3.34-7.57-.28-14.69-1.62-22.36a104.46,104.46,0,0,1-1.22-21.27c.44-13.78,2.89-28.23,7.84-41.13,3.47-9.07-11.39-15.31-15.71-6.63C854.37,92.87,846.22,108,834,118.75a25.75,25.75,0,0,1-4.79,3.49c-.89.53-1.8,1-2.72,1.46-1.37.67-.08,0,.19-.07-.56.2-1.12.42-1.69.57-.9.25-1.78.46-2.69.63,1.69-.32.64-.11-.39-.07-.4,0-.8-.05-1.2-.05-1,0,2,.54.5.05-.71-.23-1.44-.4-2.15-.65,2.25.79.3.13-.28-.32-1.37-1.05,1.08,1.23-.35-.27-.47-.5-.94-1-1.39-1.48.86,1,.07.16-.51-.94-.3-.57-.59-1.14-.86-1.72.91,2,0-.24-.19-.79-.19-.75-.38-1.5-.56-2.25-.46-2-.08.78-.17-1.24a40.54,40.54,0,0,1,0-5c.15-1.86-.19,1,0-.13.08-.48.15-1,.26-1.46.23-1,.45-2,.74-2.93a29.47,29.47,0,0,1,4.65-8.91c7.35-9.16,18.06-13.05,29.67-13.91,6.71-.5,6.88-10.81,0-10.59Z"/><path d="M1201.13,13c-24,46.55-38,100.62-33.87,153.21.42,5.43,4.8,8.93,10.22,7.79,21.53-4.55,37-21.89,48.94-39.26,13.4-19.53,23.41-41.12,34.59-61.94,2.91-5.43,5.91-10.83,9.12-16.1a137.87,137.87,0,0,1,8.81-13l-14.82-6.14c.79,21.62-2.19,43.29-2.13,64.93,0,21.22,1.15,46.64,15.94,63.41,16,18.19,45.3,13.76,63.7,1.88,23.83-15.39,37.25-42.64,47.21-68.25,10.71-27.55,17-56.36,24.68-84.82l-19.34-2.62a149.82,149.82,0,0,0,2.45,16.05c1.41,7.07,13.36,7.35,14.55,0,.73-4.48,1.66-8.94,2.34-13.43.79-5.25-1.32-10.58-6.88-12.11a10,10,0,0,0-12.11,6.88c-6.23,23.13-11.45,46.5-19,69.25-7.81,23.45-18,48.43-35.47,65.49a48.46,48.46,0,0,1-12.46,9.3,49.69,49.69,0,0,1-14.82,4.93c-.64.12-1.3.23-2,.32.43-.06,1.63-.16-.28,0-1.19.1-2.38.18-3.58.19s-2.24-.07-3.36-.11c-.44,0-1.9-.23.16.07-.63-.09-1.27-.19-1.9-.34-1-.24-1.91-.5-2.87-.77-.47-.13-.91-.32-1.37-.48-1.27-.45,1.51.75.32.12-.82-.44-1.65-.84-2.44-1.33-.4-.25-.77-.52-1.16-.76-1.78-1.09.26.29-.26-.2s-1.36-1.23-2-1.9c-.24-.25-2.09-2.4-1.32-1.43s-.93-1.36-1.13-1.67c-.6-.93-1.16-1.89-1.68-2.86s-.91-1.81-1.34-2.73c-.74-1.61-.09-.22,0,.09-.2-.49-.4-1-.57-1.48-.83-2.35-1.57-4.71-2.18-7.12s-1-4.56-1.46-6.86a56.44,56.44,0,0,1-.87-6.19c-.59-5.48-.89-11-1-16.51-.58-23,2.37-46,1-68.93-.41-6.63-9.78-12.56-14.82-6.13-13.37,17.07-22.64,36.78-32.56,56-10,19.38-20.33,39.83-35.77,55.57-7.2,7.34-15.26,13.12-25.14,15.44l10.23,7.79c-5-50,6.9-102.09,27.1-147.72,2.77-6.26-6.12-11.83-9.39-5.49Z"/><path d="M1649.84,5.12c-34.81-9.43-68.69,12.21-91.21,37.07-22,24.33-42.57,60.33-36.43,94.41a46.74,46.74,0,0,0,26.45,34.26,75.62,75.62,0,0,0,28.28,6.39c10.09.45,21.39.05,31.14-2.75,19.51-5.6,38.47-17.15,55-28.56,9.75-6.71,19.36-14.07,27.41-22.78,6.43-7,12.73-15.36,14.29-24.94,1.61-9.88-2-19.76-10.9-24.94s-20-4.59-29.64-3.31c-22.88,3-44.85,11.45-66.16,20-3.26,1.3-6.53,2.57-9.78,3.92-5.21,2.15-8.92,6.93-7.3,12.86,1.36,4.92,7.61,9.47,12.86,7.3,18.29-7.57,33-14.91,52.18-21,5.36-1.71,10.79-3.25,16.3-4.45a59.59,59.59,0,0,1,12.9-1.79,45.1,45.1,0,0,1,5.81.15c1.38.13-1.35-.25,0,0,.36.07.74.12,1.09.21,1,.26,2,.51,3,.86s-.43-.19-.5-.23c.39.19.76.4,1.15.6a10.67,10.67,0,0,1,1.07.67l-.49-.37c.57.44,1.73,1.58.56.35.88.92,1,2,.74,1.15.87,2.62.85,3.64,0,6.54a24.62,24.62,0,0,1-.83,2.37c.69-1.68-.59,1.06-.77,1.39a45,45,0,0,1-3.33,5.2c-.85,1.17.66-.82-.25.35-.28.35-.57.7-.86,1-.79,1-1.6,1.88-2.44,2.79-1.65,1.8-3.39,3.53-5.18,5.21a132.72,132.72,0,0,1-11.28,9.44,244.77,244.77,0,0,1-28.52,18.11q-6.68,3.66-13.56,6.94-2.88,1.36-5.79,2.65l-1.57.68c.13-.05,1.27-.53.3-.13s-2.15.88-3.23,1.3a84.38,84.38,0,0,1-8.76,2.84c-.5.13-1,.2-1.51.3,1.52-.31-.52.08-1.57.2-2.92.34-5.86.6-8.79.76a108.66,108.66,0,0,1-14.66-.11c-1-.08-2.06-.19-3.09-.3-1.53-.16,1.49.23,0,0l-1.24-.19c-2.09-.35-4.18-.73-6.24-1.25-1.8-.45-3.55-1-5.3-1.61-.85-.28-2.43-1-.64-.19-.83-.36-1.65-.74-2.45-1.14a42.64,42.64,0,0,1-4.19-2.43c-.6-.4-1.19-.83-1.78-1.25,1.67,1.2.29.23-.44-.44-1.09-1-2.13-2.05-3.14-3.15-.76-.82-1.21-1.55-.18-.12-.45-.63-.91-1.25-1.33-1.9-.8-1.22-1.48-2.49-2.15-3.77-.54-1-.78-1.78-.13-.14-.29-.73-.58-1.45-.83-2.2a39.65,39.65,0,0,1-1.23-4.29c-.16-.69-.29-1.39-.44-2.08-.35-1.72-.26-1.86-.16-.86a71.86,71.86,0,0,1-.38-9.62c0-1.56.18-3.12.33-4.68.09-1,.31-2.49,0-.64q.22-1.56.51-3.12a99.16,99.16,0,0,1,2.53-10.61c1.09-3.66,2.38-7.25,3.79-10.79a7,7,0,0,1,.48-1.16c.42-1,.85-1.94,1.29-2.9.85-1.82,1.73-3.63,2.65-5.41a164.76,164.76,0,0,1,12.95-21c15.74-21.86,43.3-47.44,73-46.84a47.92,47.92,0,0,1,9.77,1.21c6.51,1.47,9.26-8.28,2.77-10Z"/><path d="M1456.67,82.11c-6.68,13-12.71,26.21-18.46,39.61-2.74,6.39-5.42,12.8-8,19.26-2.08,5.25-6.35,12.41-1.42,17.38a7.29,7.29,0,0,0,8.66,1.12c4.07-2.37,5.57-8.35,5.72-12.15a5.46,5.46,0,0,0-5.39-5.39,9.08,9.08,0,0,0-6.37,2.87,18.68,18.68,0,0,0-2.18,2.81c-1.29,1.95-2.29,1.61,1-.47l8.65,1.11c2.24,2.09,1.57,5.37,3.11.9q.78-2.25,1.57-4.5c1-2.69,1.93-5.39,2.92-8.07q3.13-8.49,6.47-16.92c4.42-11.18,9-22.27,13.38-33.48,2.16-5.6-6.95-9.38-9.68-4.08Z"/><path d="M1484.7,42.19a15.67,15.67,0,0,0-11.28,4.17,14.21,14.21,0,0,0-3.42,5.58c-.9,2.64-1.12,6.42.56,8.75a7.49,7.49,0,0,0,5.36,3.51,7.08,7.08,0,0,0,6.17-2,8.31,8.31,0,0,0,2.22-4c.12-.5.21-1,.36-1.48.08-.22.16-.45.23-.67q.4-1.11-.39.9c.19-.24,1-1.55.1-.32s.07.11.29-.14c-1.12.83-1.37,1-.73.63.2-.12.39-.22.6-.32q-1.92.77-.81.39a5.71,5.71,0,0,1,.71-.19c1.17-.35-2,.13,0,0,3.86-.24,7.6-3.23,7.41-7.4a7.55,7.55,0,0,0-7.41-7.41Z"/><path d="M50.89,6.23C37.69,72.57,26.46,140.69.25,203.4l13.2,1.79c.54-40.4,3.51-81.66,16-120.32,5.9-18.23,14.17-36.75,26.68-51.45,7.92-9.31,20.16-19.74,32.31-18.26,13.6,1.66,21.45,16.1,25.51,28a102.6,102.6,0,0,1,4.36,47c-4.13,31.39-19.6,64-44.84,83.8a74.2,74.2,0,0,1-21.16,11.79c-7.35,2.53-16.89,4.51-22.93,2.94l-1.79-.48c-.57-.18-1.13-.37-1.69-.59.82.34.94.37.33.07s-1.2-.67-1.78-1c1.33.88,0,0-.51-.52-1.23-1.2-.25-.17,0,.16a16.52,16.52,0,0,1-1.23-2c-1.23-2.25.55,1.8-.23-.72-.14-.44-.47-2.85-.27-.88-.38-3.73.2-6,1.52-10.15,1.62-5.07,3.6-10.09,5.42-15.09,2.48-6.77-6.79-11-11.43-6.66-12.67,11.85-21.95,35.56-6.81,49.49,13.94,12.81,36.4,7.76,51.9,1.09,35.26-15.17,58.12-52.07,67.46-88,4.72-18.16,6.27-37.2,3.24-55.76-3-18.17-10.77-38.7-26.06-50-34.11-25.26-67.91,18.8-81,46C4,100.2-.17,154.09,0,205.19c0,8.05,10.52,8.51,13.2,1.79C38.5,143.53,45.21,74.6,56.77,7.85c.66-3.81-5.1-5.49-5.88-1.62Z"/><path d="M203.23,99.07c-8.55,19.74-16.14,39.87-24.43,59.71A297.19,297.19,0,0,1,164.94,188c-4.81,8.72-10.18,18.33-17.83,24.87l12.45,3.29c-2.08-13,2.28-27.26,7.72-39a151,151,0,0,1,26-38.56c8.77-9.54,18.8-18.67,30.63-24.23,1.45-.68.56-.26.23-.12.51-.22,1-.43,1.56-.62,1.1-.4,2.2-.79,3.31-1.15a79.93,79.93,0,0,1,8-2.16,46.85,46.85,0,0,1,13.84-1.3c.53,0,1.06.06,1.59.11,1.62.15-.5-.12.41.07a23.52,23.52,0,0,1,3,.8c-1.9-.67-.53-.14-.26-.08,1.79.42.22,0,.21,0s.77.78.77.78c-1.08-1-.29-.06-.63-.81s0-.5-.12-.13c.21-.6-.58,2-.84,2.65-.88,2.34-3.41,6.75-4.35,10.13-1.55,5.59,4.85,10.73,9.91,7.63,11.57-7.09,17.49-26.7,3.41-34.56-10.62-5.93-25.74-3-36.75.13-14,4-25.85,12.33-36.44,22.21a167.64,167.64,0,0,0-34.12,44.93c-9.11,17.55-15.38,37.38-11.44,57.22,1.33,6.71,10.35,6.73,13.62,1.78,5.74-8.67,11.68-16.85,16.37-26.19a296.61,296.61,0,0,0,13.11-31.05c7.62-20.78,13.08-42.32,21.45-62.81,1.51-3.71-4.91-6.45-6.51-2.75Z"/><path d="M325.81,110.41C291.44,124,262.21,166.55,273,204.17c1.13,3.91,4.42,5.93,8.25,6.28,19.73,1.84,35.32-12.54,45.7-27.68a137.61,137.61,0,0,0,21.08-50.92c2.18-11.39-15.12-16.34-17.53-4.83a224.7,224.7,0,0,0-5.3,47.73c0,4.13-.2,8.69.57,12.77,1,5.56,4.95,7.69,9.74,9.61a33.17,33.17,0,0,0,17.09,2.12C376.2,196,389.73,169,392.31,147.79c1.36-11.25-17.5-13.74-19.8-2.68-2,9.62-5.28,19.34-11.59,26.52-2.76,3.14-6.2,5.9-9.13,6.8a10.51,10.51,0,0,1-5.07.72,17.83,17.83,0,0,1-5.93-1.67l5,8.7c-1.5-18-1.08-36.55,2.29-54.33L330.54,127a126.4,126.4,0,0,1-17,43.62c-7.46,11.92-18.28,23.61-32.3,22.71l8.25,6.28c-4.8-15.08-.22-31.28,7.29-44.69,7.67-13.7,19.22-26.69,33.86-33,6.51-2.79,1.8-14.21-4.88-11.56Z"/><path d="M439.45,102.94c-6.88,19.15-13.05,38.68-15.58,58.93-2.46,19.79-1.15,42.71,14.22,57.32,2.86,2.71,8,3.87,11.47,1.47,15.35-10.6,23.88-26.82,30.22-43.9,5.64-15.17,9.71-31.16,19.89-43.92l-18.8-7.79c-.52,19.52.56,40.1,8.79,58.12,5.27,11.54,15.08,21,28.21,21.91,27.1,1.89,44.83-29.5,52.58-51a133.91,133.91,0,0,0,7.34-57.47c-.63-6.35-5-11.82-11.81-11.82-6.14,0-12.15,5.41-11.82,11.82a156.16,156.16,0,0,1-.34,24.18c-.07.74-.16,1.47-.24,2.2-.38,3.61.43-2.36-.16,1.18-.27,1.6-.52,3.2-.82,4.79-.69,3.59-1.52,7.16-2.52,10.68q-1.35,4.81-3.1,9.49c-.22.59-2.16,5.19-1,2.49-.76,1.69-1.52,3.38-2.35,5-1.19,2.37-2.46,4.69-3.84,7q-1.1,1.8-2.28,3.54c-.51.75-3.66,4.75-1.47,2.13-1.6,1.92-3.2,3.82-5,5.58-.83.82-1.71,1.57-2.57,2.36-2.2,2,1.91-1.1-1,.77-1.63,1.06-3.38,1.88-5,2.9-1.83,1.14,2.8-.73.73-.32-.35.07-.7.27-1,.36a29.42,29.42,0,0,1-3.14.75s3.73-.42.06-.2c-.32,0-.7-.08-1,0-2,.23,3,.88,1.13.15a14.09,14.09,0,0,0-2.47-.67c-1.72-.3,2.41-.37,1.37.59a6.73,6.73,0,0,1-1.42-.74c-1.62-1.12-1.89-2.22-.37-.09a18.7,18.7,0,0,0-2.18-2.07c-.39-.37-.69-.81-1-1.19-1-1.1,1.6,2.54.4.51-.74-1.25-1.6-2.42-2.3-3.7-.42-.75-2.05-4.21-1.52-3,.78,1.77-.34-.91-.38-1-.32-.86-.63-1.73-.92-2.6a93.35,93.35,0,0,1-3-12.2,113.64,113.64,0,0,1-1.55-12.1c-.56-6.08-.82-12.17-.92-18.27-.18-11.64-14.33-14-20.53-5.56-10,13.65-14.68,31-20,46.85-5.17,15.46-11.38,29-24.29,39.47h13.38c-13.09-10.72-13.38-30.19-12.12-46.53,1.39-18.14,5.87-35.93,10.76-53.4,1.95-6.94-8.28-9.55-10.66-2.94Z"/></g></g></svg>